<?xml version="1.0" standalone="no"?>
<!DOCTYPE svg PUBLIC "-//W3C//DTD SVG 1.1//EN" "http://www.w3.org/Graphics/SVG/1.1/DTD/svg11.dtd" >
<!--
2013-9-30: Created.
-->
<svg>
<metadata>
Created by iconfont
</metadata>
<defs>

<font id="iconfont" horiz-adv-x="1024" >
  <font-face
    font-family="iconfont"
    font-weight="500"
    font-stretch="normal"
    units-per-em="1024"
    ascent="896"
    descent="-128"
  />
    <missing-glyph />
    
    <glyph glyph-name="3" unicode="&#58882;" d="M991.397415-11.301415 685.887015 294.207015c42.706708 60.226954 67.893169 131.4048 67.893169 209.148062-3.286646 101.8368-38.327138 186.153354-106.216369 252.949662C580.765538 824.197908 496.448985 859.2384 394.612185 862.523077c-101.8368-3.284677-186.153354-38.325169-254.044554-106.216369-66.796308-66.796308-101.8368-151.112862-104.026585-252.949662 3.284677-101.834831 38.325169-186.153354 105.121477-254.042585 66.796308-66.796308 151.112862-101.8368 252.949662-104.026585 77.745231 0 147.828185 24.0896 208.053169 66.796308L908.175754-94.523077 991.397415-11.301415zM106.622031 503.357046c2.189785 82.126769 30.660923 150.017969 84.316554 203.6736s121.546831 82.126769 203.6736 84.316554c82.126769-2.189785 150.016-30.660923 203.6736-84.316554 54.750523-53.655631 83.221662-121.546831 85.409477-203.6736-2.187815-82.126769-30.658954-150.016-85.409477-203.6736-53.6576-53.655631-121.5488-82.1248-203.6736-84.314585-82.126769 2.189785-150.017969 30.658954-203.6736 84.314585C137.282954 353.341046 108.811815 421.230277 106.622031 503.357046z"  horiz-adv-x="1024" />

    
    <glyph glyph-name="loading" unicode="&#59645;" d="M512 682.666667c-25.6 0-42.666667 17.066667-42.666667 42.666667L469.333333 853.333333c0 25.6 17.066667 42.666667 42.666667 42.666667s42.666667-17.066667 42.666667-42.666667l0-128C554.666667 699.733333 537.6 682.666667 512 682.666667zM512-128c-25.6 0-42.666667 17.066667-42.666667 42.666667l0 128c0 25.6 17.066667 42.666667 42.666667 42.666667s42.666667-17.066667 42.666667-42.666667l0-128C554.666667-110.933333 537.6-128 512-128zM170.666667 341.333333 42.666667 341.333333c-25.6 0-42.666667 17.066667-42.666667 42.666667s17.066667 42.666667 42.666667 42.666667l128 0c25.6 0 42.666667-17.066667 42.666667-42.666667S196.266667 341.333333 170.666667 341.333333zM981.333333 341.333333l-128 0c-25.6 0-42.666667 17.066667-42.666667 42.666667s17.066667 42.666667 42.666667 42.666667l128 0c25.6 0 42.666667-17.066667 42.666667-42.666667S1006.933333 341.333333 981.333333 341.333333zM806.4 512c-12.8 0-29.866667 8.533333-38.4 21.333333-12.8 21.333333-4.266667 46.933333 17.066667 59.733333L896 657.066667c21.333333 12.8 46.933333 4.266667 59.733333-17.066667 12.8-21.333333 4.266667-46.933333-17.066667-59.733333l-110.933333-64C823.466667 512 814.933333 512 806.4 512zM106.666667 106.666667c-12.8 0-29.866667 8.533333-38.4 21.333333-12.8 21.333333-4.266667 46.933333 17.066667 59.733333l110.933333 64c21.333333 12.8 46.933333 4.266667 59.733333-17.066667 12.8-21.333333 4.266667-46.933333-17.066667-59.733333L128 110.933333C119.466667 106.666667 110.933333 106.666667 106.666667 106.666667zM682.666667 635.733333c-8.533333 0-12.8 0-21.333333 4.266667-21.333333 12.8-25.6 38.4-17.066667 59.733333L708.266667 810.666667c12.8 21.333333 38.4 25.6 59.733333 17.066667 21.333333-12.8 25.6-38.4 17.066667-59.733333l-64-110.933333C712.533333 644.266667 695.466667 635.733333 682.666667 635.733333zM277.333333-64c-8.533333 0-12.8 0-21.333333 4.266667-21.333333 12.8-25.6 38.4-17.066667 59.733333l64 110.933333C315.733333 128 341.333333 136.533333 362.666667 123.733333c21.333333-12.8 25.6-38.4 17.066667-59.733333L315.733333-42.666667C307.2-55.466667 290.133333-64 277.333333-64zM217.6 512C209.066667 512 200.533333 512 196.266667 516.266667L85.333333 580.266667C64 593.066667 55.466667 618.666667 68.266667 640 81.066667 661.333333 106.666667 665.6 128 657.066667l110.933333-64C260.266667 580.266667 264.533333 554.666667 251.733333 533.333333 247.466667 520.533333 230.4 512 217.6 512zM917.333333 106.666667c-8.533333 0-12.8 0-21.333333 4.266667l-110.933333 64c-21.333333 12.8-25.6 38.4-17.066667 59.733333 12.8 21.333333 38.4 25.6 59.733333 17.066667l110.933333-64c21.333333-12.8 25.6-38.4 17.066667-59.733333C947.2 115.2 934.4 106.666667 917.333333 106.666667zM341.333333 635.733333c-12.8 0-29.866667 8.533333-38.4 21.333333L238.933333 768C230.4 789.333333 234.666667 814.933333 256 827.733333 277.333333 840.533333 302.933333 832 315.733333 810.666667l64-110.933333C388.266667 678.4 384 652.8 362.666667 644.266667 354.133333 640 349.866667 635.733333 341.333333 635.733333zM746.666667-64c-12.8 0-29.866667 8.533333-38.4 21.333333l-64 110.933333c-12.8 21.333333-4.266667 46.933333 17.066667 59.733333 21.333333 12.8 46.933333 4.266667 59.733333-17.066667l64-110.933333c12.8-21.333333 4.266667-46.933333-17.066667-59.733333C759.466667-64 755.2-64 746.666667-64z"  horiz-adv-x="1024" />

    
    <glyph glyph-name="check-circle" unicode="&#59261;" d="M699 543h-46.9c-10.2 0-19.9-4.9-25.9-13.3L469 311.70000000000005l-71.2 98.8c-6 8.3-15.6 13.3-25.9 13.3H325c-6.5 0-10.3-7.4-6.5-12.7l124.6-172.8c12.7-17.7 39-17.7 51.7 0l210.6 292c3.9 5.3 0.1 12.7-6.4 12.7zM512 832C264.6 832 64 631.4 64 384s200.6-448 448-448 448 200.6 448 448S759.4 832 512 832z m0-820c-205.4 0-372 166.6-372 372s166.6 372 372 372 372-166.6 372-372-166.6-372-372-372z"  horiz-adv-x="1024" />

    
    <glyph glyph-name="close-circle" unicode="&#59262;" d="M685.4 541.2c0 4.4-3.6 8-8 8l-66-0.3L512 430.4l-99.3 118.4-66.1 0.3c-4.4 0-8-3.5-8-8 0-1.9 0.7-3.7 1.9-5.2l130.1-155L340.5 226c-1.2-1.5-1.9-3.3-1.9-5.2 0-4.4 3.6-8 8-8l66.1 0.3L512 331.6l99.3-118.4 66-0.3c4.4 0 8 3.5 8 8 0 1.9-0.7 3.7-1.9 5.2L553.5 381l130.1 155c1.2 1.4 1.8 3.3 1.8 5.2zM512 831C264.6 831 64 630.4 64 383s200.6-448 448-448 448 200.6 448 448S759.4 831 512 831z m0-820c-205.4 0-372 166.6-372 372s166.6 372 372 372 372-166.6 372-372-166.6-372-372-372z"  horiz-adv-x="1024" />

    
    <glyph glyph-name="info-circle" unicode="&#59263;" d="M512 832C264.6 832 64 631.4 64 384s200.6-448 448-448 448 200.6 448 448S759.4 832 512 832z m0-820c-205.4 0-372 166.6-372 372s166.6 372 372 372 372-166.6 372-372-166.6-372-372-372zM512 560m-48 0a48 48 0 1 1 96 0 48 48 0 1 1-96 0ZM536 448h-48c-4.4 0-8-3.6-8-8v-272c0-4.4 3.6-8 8-8h48c4.4 0 8 3.6 8 8V440c0 4.4-3.6 8-8 8z"  horiz-adv-x="1024" />

    
    <glyph glyph-name="left-circle" unicode="&#59264;" d="M603.3 568.5l-246-178c-4.4-3.2-4.4-9.7 0-12.9l246-178c5.3-3.8 12.7 0 12.7 6.5V253c0 10.2-4.9 19.9-13.2 25.9L457.4 384l145.4 105.2c8.3 6 13.2 15.6 13.2 25.9V562c0 6.5-7.4 10.3-12.7 6.5zM512 832C264.6 832 64 631.4 64 384s200.6-448 448-448 448 200.6 448 448S759.4 832 512 832z m0-820c-205.4 0-372 166.6-372 372s166.6 372 372 372 372-166.6 372-372-166.6-372-372-372z"  horiz-adv-x="1024" />

    
    <glyph glyph-name="down-circle" unicode="&#59265;" d="M690 491h-46.9c-10.2 0-19.9-4.9-25.9-13.2L512 332.4 406.8 477.8c-6 8.3-15.6 13.2-25.9 13.2H334c-6.5 0-10.3-7.4-6.5-12.7l178-246c3.2-4.4 9.7-4.4 12.9 0l178 246c3.9 5.3 0.1 12.7-6.4 12.7zM512 832C264.6 832 64 631.4 64 384s200.6-448 448-448 448 200.6 448 448S759.4 832 512 832z m0-820c-205.4 0-372 166.6-372 372s166.6 372 372 372 372-166.6 372-372-166.6-372-372-372z"  horiz-adv-x="1024" />

    
    <glyph glyph-name="copyright" unicode="&#59266;" d="M512 832C264.6 832 64 631.4 64 384s200.6-448 448-448 448 200.6 448 448S759.4 832 512 832z m0-820c-205.4 0-372 166.6-372 372s166.6 372 372 372 372-166.6 372-372-166.6-372-372-372zM517.6 544.7c53 0 89-33.8 93-83.4 0.3-4.2 3.8-7.4 8-7.4h56.7c2.6 0 4.7 2.1 4.7 4.7 0 86.7-68.4 147.4-162.7 147.4C407.4 606 344 531.8 344 409.2v-52.3C344 235.2 407.4 162 517.3 162c94 0 162.7 58.8 162.7 141.4 0 2.6-2.1 4.7-4.7 4.7h-56.8c-4.2 0-7.6-3.2-8-7.3-4.2-46.1-40.1-77.8-93-77.8-65.3 0-102.1 47.9-102.1 133.6v52.6c0.1 87 37 135.5 102.2 135.5z"  horiz-adv-x="1024" />

    
    <glyph glyph-name="minus-circle" unicode="&#59267;" d="M696 416H328c-4.4 0-8-3.6-8-8v-48c0-4.4 3.6-8 8-8h368c4.4 0 8 3.6 8 8v48c0 4.4-3.6 8-8 8zM512 832C264.6 832 64 631.4 64 384s200.6-448 448-448 448 200.6 448 448S759.4 832 512 832z m0-820c-205.4 0-372 166.6-372 372s166.6 372 372 372 372-166.6 372-372-166.6-372-372-372z"  horiz-adv-x="1024" />

    
    <glyph glyph-name="meh" unicode="&#59268;" d="M336 475m-48 0a48 48 0 1 1 96 0 48 48 0 1 1-96 0ZM688 475m-48 0a48 48 0 1 1 96 0 48 48 0 1 1-96 0ZM512 832C264.6 832 64 631.4 64 384s200.6-448 448-448 448 200.6 448 448S759.4 832 512 832z m263-711c-34.2-34.2-74-61-118.3-79.8C611 21.8 562.3 12 512 12c-50.3 0-99 9.8-144.8 29.2-44.3 18.7-84.1 45.6-118.3 79.8-34.2 34.2-61 74-79.8 118.3C149.8 285 140 333.7 140 384s9.8 99 29.2 144.8c18.7 44.3 45.6 84.1 79.8 118.3 34.2 34.2 74 61 118.3 79.8C413 746.2 461.7 756 512 756c50.3 0 99-9.8 144.8-29.2 44.3-18.7 84.1-45.6 118.3-79.8 34.2-34.2 61-74 79.8-118.3C874.2 483 884 434.3 884 384s-9.8-99-29.2-144.8c-18.7-44.3-45.6-84.1-79.8-118.2zM664 331H360c-4.4 0-8-3.6-8-8v-48c0-4.4 3.6-8 8-8h304c4.4 0 8 3.6 8 8v48c0 4.4-3.6 8-8 8z"  horiz-adv-x="1024" />

    
    <glyph glyph-name="plus-circle" unicode="&#59269;" d="M696 416H544V568c0 4.4-3.6 8-8 8h-48c-4.4 0-8-3.6-8-8v-152H328c-4.4 0-8-3.6-8-8v-48c0-4.4 3.6-8 8-8h152v-152c0-4.4 3.6-8 8-8h48c4.4 0 8 3.6 8 8V352h152c4.4 0 8 3.6 8 8v48c0 4.4-3.6 8-8 8zM512 832C264.6 832 64 631.4 64 384s200.6-448 448-448 448 200.6 448 448S759.4 832 512 832z m0-820c-205.4 0-372 166.6-372 372s166.6 372 372 372 372-166.6 372-372-166.6-372-372-372z"  horiz-adv-x="1024" />

    
    <glyph glyph-name="play-circle" unicode="&#59270;" d="M512 832C264.6 832 64 631.4 64 384s200.6-448 448-448 448 200.6 448 448S759.4 832 512 832z m0-820c-205.4 0-372 166.6-372 372s166.6 372 372 372 372-166.6 372-372-166.6-372-372-372zM719.4 396.9l-296.1 215c-10.6 7.7-25.3 0.2-25.3-12.9v-430c0-13.1 14.8-20.5 25.3-12.9l296.1 215c8.8 6.4 8.8 19.4 0 25.8z m-257.6-134V505.1L628.5 384 461.8 262.9z"  horiz-adv-x="1024" />

    
    <glyph glyph-name="question-circle" unicode="&#59271;" d="M512 832C264.6 832 64 631.4 64 384s200.6-448 448-448 448 200.6 448 448S759.4 832 512 832z m0-820c-205.4 0-372 166.6-372 372s166.6 372 372 372 372-166.6 372-372-166.6-372-372-372zM623.6 579.3C593.6 605.6 554 620 512 620s-81.6-14.5-111.6-40.7C369.2 552 352 515.3 352 476v-7.6c0-4.4 3.6-8 8-8h48c4.4 0 8 3.6 8 8V476c0 44.1 43.1 80 96 80s96-35.9 96-80c0-31.1-22-59.6-56.1-72.7-21.2-8.1-39.2-22.3-52.1-40.9-13.1-19-19.9-41.8-19.9-64.9V276c0-4.4 3.6-8 8-8h48c4.4 0 8 3.6 8 8v22.7c0 19.7 12.4 37.7 30.9 44.8 59 22.7 97.1 74.7 97.1 132.5 0.1 39.3-17.1 76-48.3 103.3zM512 164m-40 0a40 40 0 1 1 80 0 40 40 0 1 1-80 0Z"  horiz-adv-x="1024" />

    
    <glyph glyph-name="right-circle" unicode="&#59272;" d="M666.7 390.5l-246 178c-5.3 3.8-12.7 0.1-12.7-6.5v-46.9c0-10.2 4.9-19.9 13.2-25.9L566.6 384 421.2 278.79999999999995c-8.3-6-13.2-15.6-13.2-25.9V206c0-6.5 7.4-10.3 12.7-6.5l246 178c4.4 3.2 4.4 9.8 0 13zM512 832C264.6 832 64 631.4 64 384s200.6-448 448-448 448 200.6 448 448S759.4 832 512 832z m0-820c-205.4 0-372 166.6-372 372s166.6 372 372 372 372-166.6 372-372-166.6-372-372-372z"  horiz-adv-x="1024" />

    
    <glyph glyph-name="smile" unicode="&#59273;" d="M336 475m-48 0a48 48 0 1 1 96 0 48 48 0 1 1-96 0ZM688 475m-48 0a48 48 0 1 1 96 0 48 48 0 1 1-96 0ZM512 832C264.6 832 64 631.4 64 384s200.6-448 448-448 448 200.6 448 448S759.4 832 512 832z m263-711c-34.2-34.2-74-61-118.3-79.8C611 21.8 562.3 12 512 12c-50.3 0-99 9.8-144.8 29.2-44.3 18.7-84.1 45.6-118.3 79.8-34.2 34.2-61 74-79.8 118.3C149.8 285 140 333.7 140 384s9.8 99 29.2 144.8c18.7 44.3 45.6 84.1 79.8 118.3 34.2 34.2 74 61 118.3 79.8C413 746.2 461.7 756 512 756c50.3 0 99-9.8 144.8-29.2 44.3-18.7 84.1-45.6 118.3-79.8 34.2-34.2 61-74 79.8-118.3C874.2 483 884 434.3 884 384s-9.8-99-29.2-144.8c-18.7-44.3-45.6-84.1-79.8-118.2zM664 363h-48.1c-4.2 0-7.8-3.2-8.1-7.4C604 306.1 562.5 267 512 267s-92.1 39.1-95.8 88.6c-0.3 4.2-3.9 7.4-8.1 7.4H360c-4.6 0-8.2-3.8-8-8.4 4.4-84.3 74.5-151.6 160-151.6s155.6 67.3 160 151.6c0.2 4.6-3.4 8.4-8 8.4z"  horiz-adv-x="1024" />

    
    <glyph glyph-name="time-circle" unicode="&#59274;" d="M512 832C264.6 832 64 631.4 64 384s200.6-448 448-448 448 200.6 448 448S759.4 832 512 832z m0-820c-205.4 0-372 166.6-372 372s166.6 372 372 372 372-166.6 372-372-166.6-372-372-372zM686.7 257.4L544.1 360.5V608c0 4.4-3.6 8-8 8H488c-4.4 0-8-3.6-8-8v-275.4c0-2.6 1.2-5 3.3-6.5l165.4-120.6c3.6-2.6 8.6-1.8 11.2 1.7l28.6 39c2.6 3.7 1.8 8.7-1.8 11.2z"  horiz-adv-x="1024" />

    
    <glyph glyph-name="timeout" unicode="&#59275;" d="M512 832C264.6 832 64 631.4 64 384s200.6-448 448-448 448 200.6 448 448S759.4 832 512 832z m0-820c-205.4 0-372 166.6-372 372s166.6 372 372 372 372-166.6 372-372-166.6-372-372-372zM424 544h-48c-4.4 0-8-3.6-8-8v-304c0-4.4 3.6-8 8-8h48c4.4 0 8 3.6 8 8V536c0 4.4-3.6 8-8 8zM648 544h-48c-4.4 0-8-3.6-8-8v-304c0-4.4 3.6-8 8-8h48c4.4 0 8 3.6 8 8V536c0 4.4-3.6 8-8 8z"  horiz-adv-x="1024" />

    
    <glyph glyph-name="up-circle" unicode="&#59276;" d="M518.5 535.7c-3.2 4.4-9.7 4.4-12.9 0l-178-246c-3.8-5.3 0-12.7 6.5-12.7H381c10.2 0 19.9 4.9 25.9 13.2L512 435.6l105.2-145.4c6-8.3 15.6-13.2 25.9-13.2H690c6.5 0 10.3 7.4 6.5 12.7l-178 246zM512 832C264.6 832 64 631.4 64 384s200.6-448 448-448 448 200.6 448 448S759.4 832 512 832z m0-820c-205.4 0-372 166.6-372 372s166.6 372 372 372 372-166.6 372-372-166.6-372-372-372z"  horiz-adv-x="1024" />

    
    <glyph glyph-name="warning-circle" unicode="&#59277;" d="M512 832C264.6 832 64 631.4 64 384s200.6-448 448-448 448 200.6 448 448S759.4 832 512 832z m0-820c-205.4 0-372 166.6-372 372s166.6 372 372 372 372-166.6 372-372-166.6-372-372-372zM512 208m-48 0a48 48 0 1 1 96 0 48 48 0 1 1-96 0ZM488 320h48c4.4 0 8 3.6 8 8V600c0 4.4-3.6 8-8 8h-48c-4.4 0-8-3.6-8-8v-272c0-4.4 3.6-8 8-8z"  horiz-adv-x="1024" />

    
    <glyph glyph-name="sync" unicode="&#59278;" d="M168 391.8c1 43.7 10 86.1 26.9 126 17.3 41 42.1 77.7 73.7 109.4S337 683.7 378 701c42.4 17.9 87.4 27 133.9 27s91.5-9.1 133.8-27c40.9-17.3 77.7-42.1 109.3-73.8 9.9-9.9 19.2-20.4 27.8-31.4l-60.2-47c-5.3-4.1-3.5-12.5 3-14.1l175.7-43c5-1.2 9.9 2.6 9.9 7.7l0.8 180.9c0 6.7-7.7 10.5-12.9 6.3l-56.4-44.1C765.8 740.9 646.2 804 511.8 804 282.7 804 96.3 620.4 92 392.2c-0.1-4.5 3.5-8.2 8-8.2h60c4.4 0 7.9 3.5 8 7.8zM924 384h-60c-4.4 0-7.9-3.5-8-7.8-1-43.7-10-86.1-26.9-126-17.3-41-42.1-77.8-73.7-109.4S687 84.3 646 67c-42.4-17.9-87.4-27-133.9-27s-91.5 9.1-133.9 27c-40.9 17.3-77.7 42.1-109.3 73.8-9.9 9.9-19.2 20.4-27.8 31.4l60.2 47c5.3 4.1 3.5 12.5-3 14.1l-175.7 43c-5 1.2-9.9-2.6-9.9-7.7l-0.7-181c0-6.7 7.7-10.5 12.9-6.3l56.4 44.1C258.2 27.1 377.8-36 512.2-36c229.2 0 415.5 183.7 419.8 411.8 0.1 4.5-3.5 8.2-8 8.2z"  horiz-adv-x="1024" />

    
    <glyph glyph-name="undo" unicode="&#59279;" d="M511.4 772C290.5 771.7 112 593 112 372.1c0-128 60.2-242 153.8-315.2l-37.5-48c-4.1-5.3-0.3-13 6.3-12.9l167 0.8c5.2 0 9 4.9 7.7 9.9L369.8 169c-1.6 6.5-10 8.3-14.1 3L315 119.9c-10.2 8-20 16.7-29.3 26-29.4 29.4-52.5 63.6-68.6 101.7C200.4 287 192 328.9 192 372.1s8.4 85.1 25.1 124.5c16.1 38.1 39.2 72.3 68.6 101.7 29.4 29.4 63.6 52.5 101.7 68.6C426.9 683.6 468.8 692 512 692s85.1-8.4 124.5-25.1c38.1-16.1 72.3-39.2 101.7-68.6 29.4-29.4 52.5-63.6 68.6-101.7 16.7-39.4 25.1-81.3 25.1-124.5s-8.4-85.1-25.1-124.5c-16.1-38.1-39.2-72.3-68.6-101.7-7.5-7.5-15.3-14.5-23.4-21.2-3.4-2.8-3.9-7.7-1.2-11.1l39.4-50.5c2.8-3.5 7.9-4.1 11.4-1.3C854.5 135.2 912 246.9 912 372.1c0 221.1-179.4 400.2-400.6 399.9z"  horiz-adv-x="1024" />

    
    <glyph glyph-name="redo" unicode="&#59280;" d="M758.2 56.9C851.8 130.1 912 244.1 912 372.1 912 593 733.5 771.7 512.6 772 291.4 772.3 112 593.2 112 372.1c0-125.2 57.5-236.9 147.6-310.2 3.5-2.8 8.6-2.2 11.4 1.3l39.4 50.5c2.7 3.4 2.1 8.3-1.2 11.1-8.1 6.6-15.9 13.7-23.4 21.2-29.4 29.4-52.5 63.6-68.6 101.7C200.4 287 192 328.9 192 372.1s8.4 85.1 25.1 124.5c16.1 38.1 39.2 72.3 68.6 101.7 29.4 29.4 63.6 52.5 101.7 68.6C426.9 683.6 468.8 692 512 692s85.1-8.4 124.5-25.1c38.1-16.1 72.3-39.2 101.7-68.6 29.4-29.4 52.5-63.6 68.6-101.7 16.7-39.4 25.1-81.3 25.1-124.5s-8.4-85.1-25.1-124.5c-16.1-38.1-39.2-72.3-68.6-101.7-9.3-9.3-19.1-18-29.3-26L668.2 172c-4.1 5.3-12.5 3.5-14.1-3l-39.6-162.2c-1.2-5 2.6-9.9 7.7-9.9l167-0.8c6.7 0 10.5 7.7 6.3 12.9l-37.3 47.9z"  horiz-adv-x="1024" />

    
    <glyph glyph-name="reload" unicode="&#59281;" d="M909.1 686.7l-56.4-44.1C775.8 740.9 656.2 804 521.9 804 290 804 102.3 616.5 102 384.5 101.7 152.3 289.8-36 521.9-36c181.3 0 335.8 115 394.6 276.1 1.5 4.2-0.7 8.9-4.9 10.3l-56.7 19.5c-4.1 1.4-8.6-0.7-10.1-4.8-1.8-5-3.8-10-5.9-14.9-17.3-41-42.1-77.8-73.7-109.4-31.6-31.6-68.4-56.4-109.3-73.8-42.3-17.9-87.4-27-133.8-27-46.5 0-91.5 9.1-133.8 27-40.9 17.3-77.7 42.1-109.3 73.8-31.6 31.6-56.4 68.4-73.7 109.4-17.9 42.4-27 87.4-27 133.9s9.1 91.5 27 133.9c17.3 41 42.1 77.8 73.7 109.4 31.6 31.6 68.4 56.4 109.3 73.8 42.3 17.9 87.4 27 133.8 27 46.5 0 91.5-9.1 133.8-27 40.9-17.3 77.7-42.1 109.3-73.8 9.9-9.9 19.2-20.4 27.8-31.4l-60.2-47c-5.3-4.1-3.5-12.5 3-14.1l175.6-43c5-1.2 9.9 2.6 9.9 7.7l0.8 180.9c-0.1 6.6-7.8 10.3-13 6.2z"  horiz-adv-x="1024" />

    
    <glyph glyph-name="reloadtime" unicode="&#59282;" d="M536.1 623H488c-4.4 0-8-3.6-8-8v-275.3c0-2.6 1.2-5 3.3-6.5l165.3-120.7c3.6-2.6 8.6-1.9 11.2 1.7l28.6 39c2.7 3.7 1.9 8.7-1.7 11.2L544.1 367.5V615c0 4.4-3.6 8-8 8zM755.9 547.8l156.8-38.3c5-1.2 9.9 2.6 9.9 7.7l0.8 161.5c0 6.7-7.7 10.5-12.9 6.3L752.9 561.9c-5.3-4.2-3.5-12.5 3-14.1zM923.6 246.7l-56.7 19.5c-4.1 1.4-8.6-0.7-10.1-4.8-1.9-5.1-3.9-10.1-6-15.1-17.8-42.1-43.3-80-75.9-112.5-32.5-32.5-70.4-58.1-112.5-75.9-43.6-18.4-89.9-27.8-137.7-27.8-47.8 0-94.1 9.3-137.7 27.8-42.1 17.8-80 43.4-112.5 75.9-32.5 32.5-58 70.4-75.9 112.5C180.3 289.8 171 336.2 171 384c0 47.8 9.3 94.2 27.8 137.8 17.8 42.1 43.3 80 75.9 112.5 32.5 32.5 70.4 58.1 112.5 75.9C430.6 728.7 477 738 524.8 738s94.1-9.3 137.7-27.8c42.1-17.8 80-43.4 112.5-75.9 10.2-10.3 19.8-21 28.6-32.3l59.8 46.8C784.7 749.4 662.2 814.1 524.6 814 285 813.9 92.6 619.3 95 379.6 97.4 144.1 288.9-46 524.8-46c185.5 0 343.5 117.6 403.7 282.3 1.5 4.2-0.7 8.9-4.9 10.4z"  horiz-adv-x="1024" />

    
    <glyph glyph-name="message" unicode="&#59283;" d="M512 384m-48 0a48 48 0 1 1 96 0 48 48 0 1 1-96 0ZM712 384m-48 0a48 48 0 1 1 96 0 48 48 0 1 1-96 0ZM312 384m-48 0a48 48 0 1 1 96 0 48 48 0 1 1-96 0ZM925.2 557.6c-22.6 53.7-55 101.9-96.3 143.3-41.3 41.3-89.5 73.8-143.3 96.3C630.6 820.3 572.2 832 512 832h-2c-60.6-0.3-119.3-12.3-174.5-35.9-53.3-22.8-101.1-55.2-142-96.5-40.9-41.3-73-89.3-95.2-142.8-23-55.4-34.6-114.3-34.3-174.9 0.3-69.4 16.9-138.3 48-199.9v-152c0-25.4 20.6-46 46-46h152.1c61.6-31.1 130.5-47.7 199.9-48h2.1c59.9 0 118 11.6 172.7 34.3 53.5 22.3 101.6 54.3 142.8 95.2 41.3 40.9 73.8 88.7 96.5 142 23.6 55.2 35.6 113.9 35.9 174.5 0.3 60.9-11.5 120-34.8 175.6z m-151.1-438C704 50.2 611 12 512 12h-1.7c-60.3 0.3-120.2 15.3-173.1 43.5l-8.4 4.5H188V200.8l-4.5 8.4C155.3 262.1 140.3 322 140 382.3c-0.4 99.7 37.7 193.3 107.6 263.8 69.8 70.5 163.1 109.5 262.8 109.9h1.7c50 0 98.5-9.7 144.2-28.9 44.6-18.7 84.6-45.6 119-80 34.3-34.3 61.3-74.4 80-119 19.4-46.2 29.1-95.2 28.9-145.8-0.6-99.6-39.7-192.9-110.1-262.7z"  horiz-adv-x="1024" />

    
    <glyph glyph-name="setting" unicode="&#59284;" d="M924.8 270.3l-65.5 56c3.1 19 4.7 38.4 4.7 57.8s-1.6 38.8-4.7 57.8l65.5 56c10.1 8.6 13.8 22.6 9.3 35.2l-0.9 2.6c-18.1 50.5-44.9 96.9-79.7 137.9l-1.8 2.1c-8.6 10.1-22.5 13.9-35.1 9.5l-81.3-28.9c-30 24.6-63.5 44-99.7 57.6l-15.7 85c-2.4 13.1-12.7 23.3-25.8 25.7l-2.7 0.5c-52.1 9.4-106.9 9.4-159 0l-2.7-0.5c-13.1-2.4-23.4-12.6-25.8-25.7l-15.8-85.4c-35.9-13.6-69.2-32.9-99-57.4l-81.9 29.1c-12.5 4.4-26.5 0.7-35.1-9.5l-1.8-2.1c-34.8-41.1-61.6-87.5-79.7-137.9l-0.9-2.6c-4.5-12.5-0.8-26.5 9.3-35.2l66.3-56.6c-3.1-18.8-4.6-38-4.6-57.1 0-19.2 1.5-38.4 4.6-57.1L99 270.5c-10.1-8.6-13.8-22.6-9.3-35.2l0.9-2.6c18.1-50.4 44.9-96.9 79.7-137.9l1.8-2.1c8.6-10.1 22.5-13.9 35.1-9.5l81.9 29.1c29.8-24.5 63.1-43.9 99-57.4l15.8-85.4c2.4-13.1 12.7-23.3 25.8-25.7l2.7-0.5c26.1-4.7 52.8-7.1 79.5-7.1 26.7 0 53.5 2.4 79.5 7.1l2.7 0.5c13.1 2.4 23.4 12.6 25.8 25.7l15.7 85c36.2 13.6 69.7 32.9 99.7 57.6l81.3-28.9c12.5-4.4 26.5-0.7 35.1 9.5l1.8 2.1c34.8 41.1 61.6 87.5 79.7 137.9l0.9 2.6c4.5 12.3 0.8 26.3-9.3 35zM788.3 430.1c2.5-15.1 3.8-30.6 3.8-46.1s-1.3-31-3.8-46.1l-6.6-40.1 74.7-63.9c-11.3-26.1-25.6-50.7-42.6-73.6L721 193.2l-31.4-25.8c-23.9-19.6-50.5-35-79.3-45.8l-38.1-14.3-17.9-97c-28.1-3.2-56.8-3.2-85 0l-17.9 97.2-37.8 14.5c-28.5 10.8-55 26.2-78.7 45.7l-31.4 25.9-93.4-33.2c-17 22.9-31.2 47.6-42.6 73.6l75.5 64.5-6.5 40c-2.4 14.9-3.7 30.3-3.7 45.5 0 15.3 1.2 30.6 3.7 45.5l6.5 40-75.5 64.5c11.3 26.1 25.6 50.7 42.6 73.6l93.4-33.2 31.4 25.9c23.7 19.5 50.2 34.9 78.7 45.7l37.9 14.3 17.9 97.2c28.1 3.2 56.8 3.2 85 0l17.9-97 38.1-14.3c28.7-10.8 55.4-26.2 79.3-45.8l31.4-25.8 92.8 32.9c17-22.9 31.2-47.6 42.6-73.6L781.8 470l6.5-39.9zM512 570c-97.2 0-176-78.8-176-176s78.8-176 176-176 176 78.8 176 176-78.8 176-176 176z m79.2-255.2C570 293.7 541.9 282 512 282c-29.9 0-58 11.7-79.2 32.8C411.7 336 400 364.1 400 394c0 29.9 11.7 58 32.8 79.2C454 494.4 482.1 506 512 506c29.9 0 58-11.6 79.2-32.8C612.3 452 624 423.9 624 394c0-29.9-11.7-58-32.8-79.2z"  horiz-adv-x="1024" />

    
    <glyph glyph-name="eye" unicode="&#59285;" d="M942.2 409.8C847.4 609.5 704.1 710 512 710c-192.2 0-335.4-100.5-430.2-300.3-7.7-16.2-7.7-35.2 0-51.5C176.6 158.5 319.9 58 512 58c192.2 0 335.4 100.5 430.2 300.3 7.7 16.2 7.7 35 0 51.5zM512 130c-161.3 0-279.4 81.8-362.7 254C232.6 556.2 350.7 638 512 638c161.3 0 279.4-81.8 362.7-254C791.5 211.8 673.4 130 512 130zM508 560c-97.2 0-176-78.8-176-176s78.8-176 176-176 176 78.8 176 176-78.8 176-176 176z m0-288c-61.9 0-112 50.1-112 112s50.1 112 112 112 112-50.1 112-112-50.1-112-112-112z"  horiz-adv-x="1024" />

    
    <glyph glyph-name="edit-square" unicode="&#59286;" d="M904 384h-56c-4.4 0-8-3.6-8-8v-320H184V712h320c4.4 0 8 3.6 8 8v56c0 4.4-3.6 8-8 8H144c-17.7 0-32-14.3-32-32v-736c0-17.7 14.3-32 32-32h736c17.7 0 32 14.3 32 32V376c0 4.4-3.6 8-8 8zM355.9 361.1L354 242.20000000000005c-0.1-8.9 7.1-16.2 16-16.2h0.4l118 2.9c2 0.1 4 0.9 5.4 2.3l415.9 415c3.1 3.1 3.1 8.2 0 11.3L785.4 781.7c-1.6 1.6-3.6 2.3-5.7 2.3s-4.1-0.8-5.7-2.3l-415.8-415c-1.4-1.5-2.3-3.5-2.3-5.6z m63.5-23.6L779.7 697l45.2-45.1-360.5-359.7-45.7-1.1 0.7 46.4z"  horiz-adv-x="1024" />

    
    <glyph glyph-name="export" unicode="&#59287;" d="M888.3 138.6h-53.8c-4.2 0-7.7-3.5-7.7-7.7v-61.8H197.1V698.9h629.8v-61.8c0-4.2 3.5-7.7 7.7-7.7h53.8c4.2 0 7.7 3.4 7.7 7.7V737.3c0 17-13.7 30.7-30.7 30.7H158.7c-17 0-30.7-13.7-30.7-30.7v-706.6c0-17 13.7-30.7 30.7-30.7h706.6c17 0 30.7 13.7 30.7 30.7V130.9c0 4.3-3.5 7.7-7.7 7.7zM906.9 390.3L765 502.3c-5.3 4.2-13 0.4-13-6.3v-76H438c-4.4 0-8-3.6-8-8v-56c0-4.4 3.6-8 8-8h314v-76c0-6.7 7.8-10.5 13-6.3l141.9 112c4.1 3.2 4.1 9.4 0 12.6z"  horiz-adv-x="1024" />

    
    <glyph glyph-name="save" unicode="&#59288;" d="M893.3 602.7L730.7 765.3c-7.5 7.5-16.7 13-26.7 16V784H144c-17.7 0-32-14.3-32-32v-736c0-17.7 14.3-32 32-32h736c17.7 0 32 14.3 32 32V557.5c0 17-6.7 33.2-18.7 45.2zM384 712h256v-104H384V712z m456-656H184V712h136v-136c0-17.7 14.3-32 32-32h320c17.7 0 32 14.3 32 32V690.2l136-136V56zM512 454c-79.5 0-144-64.5-144-144s64.5-144 144-144 144 64.5 144 144-64.5 144-144 144z m0-224c-44.2 0-80 35.8-80 80s35.8 80 80 80 80-35.8 80-80-35.8-80-80-80z"  horiz-adv-x="1024" />

    
    <glyph glyph-name="Import" unicode="&#59289;" d="M888.3 138.6h-53.8c-4.2 0-7.7-3.5-7.7-7.7v-61.8H197.1V698.9h629.8v-61.8c0-4.2 3.5-7.7 7.7-7.7h53.8c4.2 0 7.7 3.4 7.7 7.7V737.3c0 17-13.7 30.7-30.7 30.7H158.7c-17 0-30.7-13.7-30.7-30.7v-706.6c0-17 13.7-30.7 30.7-30.7h706.6c17 0 30.7 13.7 30.7 30.7V130.9c0 4.3-3.5 7.7-7.7 7.7zM902 420H588v76c0 6.7-7.8 10.5-13 6.3l-141.9-112c-4.1-3.2-4.1-9.4 0-12.6l141.9-112c5.3-4.2 13-0.4 13 6.3v76h314c4.4 0 8 3.6 8 8v56c0 4.4-3.6 8-8 8z"  horiz-adv-x="1024" />

    
    <glyph glyph-name="appstore" unicode="&#59290;" d="M464 752H160c-8.8 0-16-7.2-16-16v-304c0-8.8 7.2-16 16-16h304c8.8 0 16 7.2 16 16V736c0 8.8-7.2 16-16 16z m-52-268H212V684h200v-200zM864 752H560c-8.8 0-16-7.2-16-16v-304c0-8.8 7.2-16 16-16h304c8.8 0 16 7.2 16 16V736c0 8.8-7.2 16-16 16z m-52-268H612V684h200v-200zM464 352H160c-8.8 0-16-7.2-16-16v-304c0-8.8 7.2-16 16-16h304c8.8 0 16 7.2 16 16V336c0 8.8-7.2 16-16 16z m-52-268H212V284h200v-200zM864 352H560c-8.8 0-16-7.2-16-16v-304c0-8.8 7.2-16 16-16h304c8.8 0 16 7.2 16 16V336c0 8.8-7.2 16-16 16z m-52-268H612V284h200v-200z"  horiz-adv-x="1024" />

    
    <glyph glyph-name="close-square" unicode="&#59291;" d="M354 225h58.9c4.7 0 9.2 2.1 12.3 5.7L512 334.20000000000005l86.8-103.5c3-3.6 7.5-5.7 12.3-5.7H670c6.8 0 10.5 7.9 6.1 13.1L553.8 384l122.4 145.9c4.4 5.2 0.7 13.1-6.1 13.1h-58.9c-4.7 0-9.2-2.1-12.3-5.7L512 433.8l-86.8 103.5c-3 3.6-7.5 5.7-12.3 5.7H354c-6.8 0-10.5-7.9-6.1-13.1L470.2 384 347.9 238.10000000000002c-4.4-5.2-0.7-13.1 6.1-13.1zM880 784H144c-17.7 0-32-14.3-32-32v-736c0-17.7 14.3-32 32-32h736c17.7 0 32 14.3 32 32V752c0 17.7-14.3 32-32 32z m-40-728H184V712h656v-656z"  horiz-adv-x="1024" />

    
    <glyph glyph-name="down-square" unicode="&#59292;" d="M505.5 237.29999999999995c3.2-4.4 9.7-4.4 12.9 0l178 246c3.8 5.3 0 12.7-6.5 12.7H643c-10.2 0-19.9-4.9-25.9-13.2L512 337.4 406.8 482.8c-6 8.3-15.6 13.2-25.9 13.2H334c-6.5 0-10.3-7.4-6.5-12.7l178-246zM880 784H144c-17.7 0-32-14.3-32-32v-736c0-17.7 14.3-32 32-32h736c17.7 0 32 14.3 32 32V752c0 17.7-14.3 32-32 32z m-40-728H184V712h656v-656z"  horiz-adv-x="1024" />

    
    <glyph glyph-name="layout" unicode="&#59293;" d="M880 784H144c-17.7 0-32-14.3-32-32v-736c0-17.7 14.3-32 32-32h736c17.7 0 32 14.3 32 32V752c0 17.7-14.3 32-32 32z m-696-72h136v-656H184V712z m656-656H384V512h456v-456zM384 576V712h456v-136H384z"  horiz-adv-x="1024" />

    
    <glyph glyph-name="left-square" unicode="&#59294;" d="M365.3 377.5l246-178c5.3-3.8 12.7 0 12.7 6.5v46.9c0 10.2-4.9 19.9-13.2 25.9L465.4 384l145.4 105.2c8.3 6 13.2 15.6 13.2 25.9V562c0 6.5-7.4 10.3-12.7 6.5l-246-178c-4.4-3.2-4.4-9.8 0-13zM880 784H144c-17.7 0-32-14.3-32-32v-736c0-17.7 14.3-32 32-32h736c17.7 0 32 14.3 32 32V752c0 17.7-14.3 32-32 32z m-40-728H184V712h656v-656z"  horiz-adv-x="1024" />

    
    <glyph glyph-name="play-square" unicode="&#59295;" d="M442.3 218.39999999999998l199.4 156.7c5.7 4.5 5.7 13.1 0 17.7L442.3 549.6c-7.4 5.8-18.3 0.6-18.3-8.8v-313.5c0-9.4 10.9-14.7 18.3-8.9zM880 784H144c-17.7 0-32-14.3-32-32v-736c0-17.7 14.3-32 32-32h736c17.7 0 32 14.3 32 32V752c0 17.7-14.3 32-32 32z m-40-728H184V712h656v-656z"  horiz-adv-x="1024" />

    
    <glyph glyph-name="control" unicode="&#59296;" d="M880 784H144c-17.7 0-32-14.3-32-32v-736c0-17.7 14.3-32 32-32h736c17.7 0 32 14.3 32 32V752c0 17.7-14.3 32-32 32z m-40-728H184V712h656v-656zM340 213v-77c0-4.4 3.6-8 8-8h48c4.4 0 8 3.6 8 8v77c-10.1-3.3-20.8-5-32-5s-21.9 1.8-32 5zM404 411V632c0 4.4-3.6 8-8 8h-48c-4.4 0-8-3.6-8-8v-221c10.1 3.3 20.8 5 32 5s21.9-1.8 32-5zM340 213c10.1-3.3 20.8-5 32-5s21.9 1.8 32 5c41.8 13.5 72 52.7 72 99s-30.2 85.5-72 99c-10.1 3.3-20.8 5-32 5s-21.9-1.8-32-5c-41.8-13.5-72-52.7-72-99s30.2-85.5 72-99z m0.1 115.7c0.3 0.6 0.7 1.2 1 1.8v0.1l1.2 1.8c0.1 0.2 0.2 0.3 0.3 0.5 0.3 0.5 0.7 0.9 1 1.4 0.1 0.1 0.2 0.3 0.3 0.4 0.5 0.6 0.9 1.1 1.4 1.6l0.3 0.3 1.2 1.2 0.4 0.4c0.5 0.5 1 0.9 1.6 1.4 0.6 0.5 1.1 0.9 1.7 1.3 0.2 0.1 0.3 0.2 0.5 0.3 0.5 0.3 0.9 0.7 1.4 1 0.1 0.1 0.3 0.2 0.4 0.3 0.6 0.4 1.2 0.7 1.9 1.1 0.1 0.1 0.3 0.1 0.4 0.2 0.5 0.3 1 0.5 1.6 0.8l0.6 0.3c0.7 0.3 1.3 0.6 2 0.8 0.7 0.3 1.4 0.5 2.1 0.7 0.2 0.1 0.4 0.1 0.6 0.2 0.6 0.2 1.1 0.3 1.7 0.4 0.2 0 0.3 0.1 0.5 0.1 0.7 0.2 1.5 0.3 2.2 0.4 0.2 0 0.3 0 0.5 0.1 0.6 0.1 1.2 0.1 1.8 0.2h0.6c0.8 0 1.5 0.1 2.3 0.1s1.5 0 2.3-0.1h0.6c0.6 0 1.2-0.1 1.8-0.2 0.2 0 0.3 0 0.5-0.1 0.7-0.1 1.5-0.2 2.2-0.4 0.2 0 0.3-0.1 0.5-0.1 0.6-0.1 1.2-0.3 1.7-0.4 0.2-0.1 0.4-0.1 0.6-0.2 0.7-0.2 1.4-0.4 2.1-0.7 0.7-0.2 1.3-0.5 2-0.8l0.6-0.3c0.5-0.2 1.1-0.5 1.6-0.8 0.1-0.1 0.3-0.1 0.4-0.2 0.6-0.3 1.3-0.7 1.9-1.1 0.1-0.1 0.3-0.2 0.4-0.3 0.5-0.3 1-0.6 1.4-1 0.2-0.1 0.3-0.2 0.5-0.3 0.6-0.4 1.2-0.9 1.7-1.3s1.1-0.9 1.6-1.4l0.4-0.4 1.2-1.2 0.3-0.3c0.5-0.5 1-1.1 1.4-1.6 0.1-0.1 0.2-0.3 0.3-0.4 0.4-0.4 0.7-0.9 1-1.4 0.1-0.2 0.2-0.3 0.3-0.5l1.2-1.8s0-0.1 0.1-0.1c0.4-0.6 0.7-1.2 1-1.8 2.6-5 4.1-10.7 4.1-16.7s-1.5-11.7-4.1-16.7c-0.3-0.6-0.7-1.2-1-1.8 0 0 0-0.1-0.1-0.1l-1.2-1.8c-0.1-0.2-0.2-0.3-0.3-0.5-0.3-0.5-0.7-0.9-1-1.4-0.1-0.1-0.2-0.3-0.3-0.4-0.5-0.6-0.9-1.1-1.4-1.6l-0.3-0.3-1.2-1.2-0.4-0.4c-0.5-0.5-1-0.9-1.6-1.4-0.6-0.5-1.1-0.9-1.7-1.3-0.2-0.1-0.3-0.2-0.5-0.3-0.5-0.3-0.9-0.7-1.4-1-0.1-0.1-0.3-0.2-0.4-0.3-0.6-0.4-1.2-0.7-1.9-1.1-0.1-0.1-0.3-0.1-0.4-0.2-0.5-0.3-1-0.5-1.6-0.8l-0.6-0.3c-0.7-0.3-1.3-0.6-2-0.8-0.7-0.3-1.4-0.5-2.1-0.7-0.2-0.1-0.4-0.1-0.6-0.2-0.6-0.2-1.1-0.3-1.7-0.4-0.2 0-0.3-0.1-0.5-0.1-0.7-0.2-1.5-0.3-2.2-0.4-0.2 0-0.3 0-0.5-0.1-0.6-0.1-1.2-0.1-1.8-0.2h-0.6c-0.8 0-1.5-0.1-2.3-0.1s-1.5 0-2.3 0.1h-0.6c-0.6 0-1.2 0.1-1.8 0.2-0.2 0-0.3 0-0.5 0.1-0.7 0.1-1.5 0.2-2.2 0.4-0.2 0-0.3 0.1-0.5 0.1-0.6 0.1-1.2 0.3-1.7 0.4-0.2 0.1-0.4 0.1-0.6 0.2-0.7 0.2-1.4 0.4-2.1 0.7-0.7 0.2-1.3 0.5-2 0.8l-0.6 0.3c-0.5 0.2-1.1 0.5-1.6 0.8-0.1 0.1-0.3 0.1-0.4 0.2-0.6 0.3-1.3 0.7-1.9 1.1-0.1 0.1-0.3 0.2-0.4 0.3-0.5 0.3-1 0.6-1.4 1-0.2 0.1-0.3 0.2-0.5 0.3-0.6 0.4-1.2 0.9-1.7 1.3s-1.1 0.9-1.6 1.4l-0.4 0.4-1.2 1.2-0.3 0.3c-0.5 0.5-1 1.1-1.4 1.6-0.1 0.1-0.2 0.3-0.3 0.4-0.4 0.4-0.7 0.9-1 1.4-0.1 0.2-0.2 0.3-0.3 0.5l-1.2 1.8v0.1c-0.4 0.6-0.7 1.2-1 1.8-2.6 5-4.1 10.7-4.1 16.7s1.5 11.7 4.1 16.7zM620 357v-221c0-4.4 3.6-8 8-8h48c4.4 0 8 3.6 8 8V357c-10.1-3.3-20.8-5-32-5s-21.9 1.8-32 5zM684 555v77c0 4.4-3.6 8-8 8h-48c-4.4 0-8-3.6-8-8v-77c10.1 3.3 20.8 5 32 5s21.9-1.8 32-5zM620 357c10.1-3.3 20.8-5 32-5s21.9 1.8 32 5c41.8 13.5 72 52.7 72 99s-30.2 85.5-72 99c-10.1 3.3-20.8 5-32 5s-21.9-1.8-32-5c-41.8-13.5-72-52.7-72-99s30.2-85.5 72-99z m0.1 115.7c0.3 0.6 0.7 1.2 1 1.8v0.1l1.2 1.8c0.1 0.2 0.2 0.3 0.3 0.5 0.3 0.5 0.7 0.9 1 1.4 0.1 0.1 0.2 0.3 0.3 0.4 0.5 0.6 0.9 1.1 1.4 1.6l0.3 0.3 1.2 1.2 0.4 0.4c0.5 0.5 1 0.9 1.6 1.4 0.6 0.5 1.1 0.9 1.7 1.3 0.2 0.1 0.3 0.2 0.5 0.3 0.5 0.3 0.9 0.7 1.4 1 0.1 0.1 0.3 0.2 0.4 0.3 0.6 0.4 1.2 0.7 1.9 1.1 0.1 0.1 0.3 0.1 0.4 0.2 0.5 0.3 1 0.5 1.6 0.8l0.6 0.3c0.7 0.3 1.3 0.6 2 0.8 0.7 0.3 1.4 0.5 2.1 0.7 0.2 0.1 0.4 0.1 0.6 0.2 0.6 0.2 1.1 0.3 1.7 0.4 0.2 0 0.3 0.1 0.5 0.1 0.7 0.2 1.5 0.3 2.2 0.4 0.2 0 0.3 0 0.5 0.1 0.6 0.1 1.2 0.1 1.8 0.2h0.6c0.8 0 1.5 0.1 2.3 0.1s1.5 0 2.3-0.1h0.6c0.6 0 1.2-0.1 1.8-0.2 0.2 0 0.3 0 0.5-0.1 0.7-0.1 1.5-0.2 2.2-0.4 0.2 0 0.3-0.1 0.5-0.1 0.6-0.1 1.2-0.3 1.7-0.4 0.2-0.1 0.4-0.1 0.6-0.2 0.7-0.2 1.4-0.4 2.1-0.7 0.7-0.2 1.3-0.5 2-0.8l0.6-0.3c0.5-0.2 1.1-0.5 1.6-0.8 0.1-0.1 0.3-0.1 0.4-0.2 0.6-0.3 1.3-0.7 1.9-1.1 0.1-0.1 0.3-0.2 0.4-0.3 0.5-0.3 1-0.6 1.4-1 0.2-0.1 0.3-0.2 0.5-0.3 0.6-0.4 1.2-0.9 1.7-1.3s1.1-0.9 1.6-1.4l0.4-0.4 1.2-1.2 0.3-0.3c0.5-0.5 1-1.1 1.4-1.6 0.1-0.1 0.2-0.3 0.3-0.4 0.4-0.4 0.7-0.9 1-1.4 0.1-0.2 0.2-0.3 0.3-0.5l1.2-1.8v-0.1c0.4-0.6 0.7-1.2 1-1.8 2.6-5 4.1-10.7 4.1-16.7s-1.5-11.7-4.1-16.7c-0.3-0.6-0.7-1.2-1-1.8v-0.1l-1.2-1.8c-0.1-0.2-0.2-0.3-0.3-0.5-0.3-0.5-0.7-0.9-1-1.4-0.1-0.1-0.2-0.3-0.3-0.4-0.5-0.6-0.9-1.1-1.4-1.6l-0.3-0.3-1.2-1.2-0.4-0.4c-0.5-0.5-1-0.9-1.6-1.4-0.6-0.5-1.1-0.9-1.7-1.3-0.2-0.1-0.3-0.2-0.5-0.3-0.5-0.3-0.9-0.7-1.4-1-0.1-0.1-0.3-0.2-0.4-0.3-0.6-0.4-1.2-0.7-1.9-1.1-0.1-0.1-0.3-0.1-0.4-0.2-0.5-0.3-1-0.5-1.6-0.8l-0.6-0.3c-0.7-0.3-1.3-0.6-2-0.8-0.7-0.3-1.4-0.5-2.1-0.7-0.2-0.1-0.4-0.1-0.6-0.2-0.6-0.2-1.1-0.3-1.7-0.4-0.2 0-0.3-0.1-0.5-0.1-0.7-0.2-1.5-0.3-2.2-0.4-0.2 0-0.3 0-0.5-0.1-0.6-0.1-1.2-0.1-1.8-0.2h-0.6c-0.8 0-1.5-0.1-2.3-0.1s-1.5 0-2.3 0.1h-0.6c-0.6 0-1.2 0.1-1.8 0.2-0.2 0-0.3 0-0.5 0.1-0.7 0.1-1.5 0.2-2.2 0.4-0.2 0-0.3 0.1-0.5 0.1-0.6 0.1-1.2 0.3-1.7 0.4-0.2 0.1-0.4 0.1-0.6 0.2-0.7 0.2-1.4 0.4-2.1 0.7-0.7 0.2-1.3 0.5-2 0.8l-0.6 0.3c-0.5 0.2-1.1 0.5-1.6 0.8-0.1 0.1-0.3 0.1-0.4 0.2-0.6 0.3-1.3 0.7-1.9 1.1-0.1 0.1-0.3 0.2-0.4 0.3-0.5 0.3-1 0.6-1.4 1-0.2 0.1-0.3 0.2-0.5 0.3-0.6 0.4-1.2 0.9-1.7 1.3s-1.1 0.9-1.6 1.4l-0.4 0.4-1.2 1.2-0.3 0.3c-0.5 0.5-1 1.1-1.4 1.6-0.1 0.1-0.2 0.3-0.3 0.4-0.4 0.4-0.7 0.9-1 1.4-0.1 0.2-0.2 0.3-0.3 0.5l-1.2 1.8v0.1c-0.4 0.6-0.7 1.2-1 1.8-2.6 5-4.1 10.7-4.1 16.7s1.5 11.7 4.1 16.7z"  horiz-adv-x="1024" />

    
    <glyph glyph-name="codelibrary" unicode="&#59297;" d="M516 223c0-4.4 3.4-8 7.5-8h185c4.1 0 7.5 3.6 7.5 8v48c0 4.4-3.4 8-7.5 8h-185c-4.1 0-7.5-3.6-7.5-8v-48zM321.1 216.9l192 161c3.8 3.2 3.8 9.1 0 12.3l-192 160.9c-5.2 4.4-13.1 0.7-13.1-6.1v-62.7c0-2.4 1-4.6 2.9-6.1L420.7 384l-109.8-92.2c-1.8-1.5-2.9-3.8-2.9-6.1V223c0-6.8 7.9-10.5 13.1-6.1zM880 784H144c-17.7 0-32-14.3-32-32v-736c0-17.7 14.3-32 32-32h736c17.7 0 32 14.3 32 32V752c0 17.7-14.3 32-32 32z m-40-728H184V712h656v-656z"  horiz-adv-x="1024" />

    
    <glyph glyph-name="detail" unicode="&#59298;" d="M880 784H144c-17.7 0-32-14.3-32-32v-736c0-17.7 14.3-32 32-32h736c17.7 0 32 14.3 32 32V752c0 17.7-14.3 32-32 32z m-40-728H184V712h656v-656zM492 496h184c4.4 0 8 3.6 8 8v48c0 4.4-3.6 8-8 8H492c-4.4 0-8-3.6-8-8v-48c0-4.4 3.6-8 8-8zM492 352h184c4.4 0 8 3.6 8 8v48c0 4.4-3.6 8-8 8H492c-4.4 0-8-3.6-8-8v-48c0-4.4 3.6-8 8-8zM492 208h184c4.4 0 8 3.6 8 8v48c0 4.4-3.6 8-8 8H492c-4.4 0-8-3.6-8-8v-48c0-4.4 3.6-8 8-8zM380 528m-40 0a40 40 0 1 1 80 0 40 40 0 1 1-80 0ZM380 384m-40 0a40 40 0 1 1 80 0 40 40 0 1 1-80 0ZM380 240m-40 0a40 40 0 1 1 80 0 40 40 0 1 1-80 0Z"  horiz-adv-x="1024" />

    
    <glyph glyph-name="minus-square" unicode="&#59299;" d="M328 352h368c4.4 0 8 3.6 8 8v48c0 4.4-3.6 8-8 8H328c-4.4 0-8-3.6-8-8v-48c0-4.4 3.6-8 8-8zM880 784H144c-17.7 0-32-14.3-32-32v-736c0-17.7 14.3-32 32-32h736c17.7 0 32 14.3 32 32V752c0 17.7-14.3 32-32 32z m-40-728H184V712h656v-656z"  horiz-adv-x="1024" />

    
    <glyph glyph-name="plus-square" unicode="&#59300;" d="M328 352h152v-152c0-4.4 3.6-8 8-8h48c4.4 0 8 3.6 8 8V352h152c4.4 0 8 3.6 8 8v48c0 4.4-3.6 8-8 8H544V568c0 4.4-3.6 8-8 8h-48c-4.4 0-8-3.6-8-8v-152H328c-4.4 0-8-3.6-8-8v-48c0-4.4 3.6-8 8-8zM880 784H144c-17.7 0-32-14.3-32-32v-736c0-17.7 14.3-32 32-32h736c17.7 0 32 14.3 32 32V752c0 17.7-14.3 32-32 32z m-40-728H184V712h656v-656z"  horiz-adv-x="1024" />

    
    <glyph glyph-name="right-square" unicode="&#59301;" d="M412.7 199.5l246 178c4.4 3.2 4.4 9.7 0 12.9l-246 178c-5.3 3.8-12.7 0-12.7-6.5V515c0-10.2 4.9-19.9 13.2-25.9L558.6 384 413.2 278.79999999999995c-8.3-6-13.2-15.6-13.2-25.9V206c0-6.5 7.4-10.3 12.7-6.5zM880 784H144c-17.7 0-32-14.3-32-32v-736c0-17.7 14.3-32 32-32h736c17.7 0 32 14.3 32 32V752c0 17.7-14.3 32-32 32z m-40-728H184V712h656v-656z"  horiz-adv-x="1024" />

    
    <glyph glyph-name="check-square" unicode="&#59304;" d="M433.1 238.29999999999995c12.7-17.7 39-17.7 51.7 0l210.6 292c3.8 5.3 0 12.7-6.5 12.7H642c-10.2 0-19.9-4.9-25.9-13.3L459 311.70000000000005l-71.2 98.8c-6 8.3-15.6 13.3-25.9 13.3H315c-6.5 0-10.3-7.4-6.5-12.7l124.6-172.8zM880 784H144c-17.7 0-32-14.3-32-32v-736c0-17.7 14.3-32 32-32h736c17.7 0 32 14.3 32 32V752c0 17.7-14.3 32-32 32z m-40-728H184V712h656v-656z"  horiz-adv-x="1024" />

    
    <glyph glyph-name="adduser" unicode="&#59310;" d="M678.3 253.6c24.2 13 51.9 20.4 81.4 20.4h0.1c3 0 4.4 3.6 2.2 5.6-30.8 27.6-65.6 49.7-103.7 65.8-0.4 0.2-0.8 0.3-1.2 0.5C719.2 391 759.6 464.3 759.6 547c0 137-110.8 248-247.5 248S264.7 684 264.7 547c0-82.7 40.4-156 102.6-201.1-0.4-0.2-0.8-0.3-1.2-0.5-44.7-18.9-84.8-46-119.3-80.6-34.5-34.5-61.5-74.7-80.4-119.5C147.9 101.5 138 55 137 7.2c-0.1-4.5 3.5-8.2 8-8.2h59.9c4.3 0 7.9 3.5 8 7.8 2 77.2 32.9 149.5 87.6 204.3C357 267.8 432.2 299 512.2 299c56.7 0 111.1-15.7 158-45.1 2.5-1.5 5.5-1.7 8.1-0.3zM512.2 375c-45.8 0-88.9 17.9-121.4 50.4-32.4 32.5-50.3 75.7-50.3 121.6 0 45.9 17.9 89.1 50.3 121.6S466.3 719 512.2 719s88.9-17.9 121.4-50.4c32.4-32.5 50.3-75.7 50.3-121.6 0-45.9-17.9-89.1-50.3-121.6C601.1 392.9 558 375 512.2 375zM880 137h-84v84c0 4.4-3.6 8-8 8h-56c-4.4 0-8-3.6-8-8v-84h-84c-4.4 0-8-3.6-8-8v-56c0-4.4 3.6-8 8-8h84v-84c0-4.4 3.6-8 8-8h56c4.4 0 8 3.6 8 8v84h84c4.4 0 8 3.6 8 8v56c0 4.4-3.6 8-8 8z"  horiz-adv-x="1024" />

    
    <glyph glyph-name="deleteteam" unicode="&#59311;" d="M888 112H664c-4.4 0-8-3.6-8-8v-48c0-4.4 3.6-8 8-8h224c4.4 0 8 3.6 8 8v48c0 4.4-3.6 8-8 8zM373.5 385.6c-0.9 8.7-1.4 17.5-1.4 26.4 0 15.9 1.5 31.4 4.3 46.5 0.7 3.6-1.2 7.3-4.5 8.8-13.6 6.1-26.1 14.5-36.9 25.1-25.8 25.2-39.7 59.3-38.7 95.4 0.9 32.1 13.8 62.6 36.3 85.6 24.7 25.3 57.9 39.1 93.2 38.7 31.9-0.3 62.7-12.6 86-34.4 7.9-7.4 14.7-15.6 20.4-24.4 2-3.1 5.9-4.4 9.3-3.2 17.6 6.1 36.2 10.4 55.3 12.4 5.6 0.6 8.8 6.6 6.3 11.6-32.5 64.3-98.9 108.7-175.7 109.9-110.9 1.7-203.3-89.2-203.3-199.9 0-62.8 28.9-118.8 74.2-155.5-31.8-14.7-61.1-35-86.5-60.4-54.8-54.7-85.8-126.9-87.8-204-0.1-4.5 3.5-8.2 8-8.2h56.1c4.3 0 7.9 3.4 8 7.7 1.9 58 25.4 112.3 66.7 153.5 29.4 29.4 65.4 49.8 104.7 59.7 3.9 1 6.5 4.7 6 8.7zM824 412c0 109.4-87.9 198.3-196.9 200C516.3 613.7 424 522.8 424 412c0-62.8 29-118.8 74.2-155.5-31.7-14.7-60.9-34.9-86.4-60.4C357 141.4 326 69.2 324-7.8c-0.1-4.5 3.5-8.2 8-8.2h56c4.3 0 7.9 3.4 8 7.7 1.9 58 25.4 112.3 66.7 153.5C505.8 188.3 563 212 624 212c110.4 0 200 89.5 200 200z m-109.5-90.5C690.3 297.3 658.2 284 624 284s-66.3 13.3-90.5 37.5C509 346 495.7 378.6 496 413.3c0.3 32.8 13.4 64.5 36.3 88 24 24.6 56.1 38.3 90.4 38.7 33.9 0.3 66.8-12.9 91-36.6 24.8-24.3 38.4-56.8 38.4-91.4-0.1-34.2-13.4-66.3-37.6-90.5z"  horiz-adv-x="1024" />

    
    <glyph glyph-name="user" unicode="&#59312;" d="M858.5 132.4c-18.9 44.8-46.1 85-80.6 119.5-34.5 34.5-74.7 61.6-119.5 80.6-0.4 0.2-0.8 0.3-1.2 0.5C719.5 378 760 451.3 760 534c0 137-111 248-248 248S264 671 264 534c0-82.7 40.5-156 102.8-201.1-0.4-0.2-0.8-0.3-1.2-0.5-44.8-18.9-85-46-119.5-80.6-34.5-34.5-61.6-74.7-80.6-119.5C146.9 88.5 137 42 136-5.8c-0.1-4.5 3.5-8.2 8-8.2h60c4.4 0 7.9 3.5 8 7.8 2 77.2 33 149.5 87.8 204.3 56.7 56.7 132 87.9 212.2 87.9s155.5-31.2 212.2-87.9C779 143.3 810 71 812-6.2c0.1-4.4 3.6-7.8 8-7.8h60c4.5 0 8.1 3.7 8 8.2-1 47.8-10.9 94.3-29.5 138.2zM512 362c-45.9 0-89.1 17.9-121.6 50.4S340 488.1 340 534c0 45.9 17.9 89.1 50.4 121.6S466.1 706 512 706s89.1-17.9 121.6-50.4S684 579.9 684 534c0-45.9-17.9-89.1-50.4-121.6S557.9 362 512 362z"  horiz-adv-x="1024" />

    
    <glyph glyph-name="areachart" unicode="&#59313;" d="M888 104H200V728c0 4.4-3.6 8-8 8h-56c-4.4 0-8-3.6-8-8v-688c0-4.4 3.6-8 8-8h752c4.4 0 8 3.6 8 8v56c0 4.4-3.6 8-8 8zM272 168h536c4.4 0 8 3.6 8 8V612c0 7.2-8.7 10.7-13.7 5.7L592 407.4l-125.4 124c-3.1 3.1-8.2 3.1-11.3 0l-189-189.6c-1.5-1.5-2.3-3.5-2.3-5.6V176c0-4.4 3.6-8 8-8z"  horiz-adv-x="1024" />

    
    <glyph glyph-name="linechart" unicode="&#59314;" d="M888 104H200V728c0 4.4-3.6 8-8 8h-56c-4.4 0-8-3.6-8-8v-688c0-4.4 3.6-8 8-8h752c4.4 0 8 3.6 8 8v56c0 4.4-3.6 8-8 8zM305.8 258.3c3.1-3.1 8.1-3.1 11.3 0l138.3 137.6L583 267.5c3.1-3.1 8.2-3.1 11.3 0l275.4 275.3c3.1 3.1 3.1 8.2 0 11.3l-39.6 39.6c-3.1 3.1-8.2 3.1-11.3 0l-230-229.9L461.4 492c-3.1 3.1-8.2 3.1-11.3 0L266.3 309.3c-3.1-3.1-3.1-8.2 0-11.3l39.5-39.7z"  horiz-adv-x="1024" />

    
    <glyph glyph-name="barchart" unicode="&#59315;" d="M888 104H200V728c0 4.4-3.6 8-8 8h-56c-4.4 0-8-3.6-8-8v-688c0-4.4 3.6-8 8-8h752c4.4 0 8 3.6 8 8v56c0 4.4-3.6 8-8 8zM288 184h56c4.4 0 8 3.6 8 8V336c0 4.4-3.6 8-8 8h-56c-4.4 0-8-3.6-8-8v-144c0-4.4 3.6-8 8-8zM440 184h56c4.4 0 8 3.6 8 8V512c0 4.4-3.6 8-8 8h-56c-4.4 0-8-3.6-8-8v-320c0-4.4 3.6-8 8-8zM592 184h56c4.4 0 8 3.6 8 8V434c0 4.4-3.6 8-8 8h-56c-4.4 0-8-3.6-8-8v-242c0-4.4 3.6-8 8-8zM744 184h56c4.4 0 8 3.6 8 8V592c0 4.4-3.6 8-8 8h-56c-4.4 0-8-3.6-8-8v-400c0-4.4 3.6-8 8-8z"  horiz-adv-x="1024" />

    
    <glyph glyph-name="pointmap" unicode="&#59316;" d="M888 104H200V728c0 4.4-3.6 8-8 8h-56c-4.4 0-8-3.6-8-8v-688c0-4.4 3.6-8 8-8h752c4.4 0 8 3.6 8 8v56c0 4.4-3.6 8-8 8zM352 292m-64 0a64 64 0 1 1 128 0 64 64 0 1 1-128 0ZM454 516m-48 0a48 48 0 1 1 96 0 48 48 0 1 1-96 0ZM660 288m-96 0a96 96 0 1 1 192 0 96 96 0 1 1-192 0ZM768 602m-56 0a56 56 0 1 1 112 0 56 56 0 1 1-112 0Z"  horiz-adv-x="1024" />

    
    <glyph glyph-name="database" unicode="&#59317;" d="M832 832H192c-17.7 0-32-14.3-32-32v-832c0-17.7 14.3-32 32-32h640c17.7 0 32 14.3 32 32V800c0 17.7-14.3 32-32 32z m-600-72h560v-208H232V760z m560-480H232V488h560v-208z m0-272H232V216h560v-208zM344 656m-40 0a40 40 0 1 1 80 0 40 40 0 1 1-80 0ZM344 384m-40 0a40 40 0 1 1 80 0 40 40 0 1 1-80 0ZM344 112m-40 0a40 40 0 1 1 80 0 40 40 0 1 1-80 0Z"  horiz-adv-x="1024" />

    
    <glyph glyph-name="sever" unicode="&#59318;" d="M832 832H192c-17.7 0-32-14.3-32-32v-832c0-17.7 14.3-32 32-32h640c17.7 0 32 14.3 32 32V800c0 17.7-14.3 32-32 32z m-600-72h560v-208H232V760z m560-480H232V488h560v-208z m0-272H232V216h560v-208zM496 688H312c-4.4 0-8-3.6-8-8v-48c0-4.4 3.6-8 8-8h184c4.4 0 8 3.6 8 8v48c0 4.4-3.6 8-8 8zM312 352h184c4.4 0 8 3.6 8 8v48c0 4.4-3.6 8-8 8H312c-4.4 0-8-3.6-8-8v-48c0-4.4 3.6-8 8-8zM680 108m-40 0a40 40 0 1 1 80 0 40 40 0 1 1-80 0Z"  horiz-adv-x="1024" />

    
    <glyph glyph-name="propertysafety" unicode="&#59328;" d="M866.9 726.1L527.1 841.9C523 843.3 517.5 844 512 844s-11-0.7-15.1-2.1L157.1 726.1c-8.3-2.8-15.1-12.4-15.1-21.2v-482.4c0-8.8 5.7-20.4 12.6-25.9L499.3-72c3.5-2.7 8-4.1 12.6-4.1s9.2 1.4 12.6 4.1l344.7 268.6c6.9 5.4 12.6 17 12.6 25.9V704.9c0.2 8.8-6.6 18.3-14.9 21.2zM810 241.7L512 9.5 214 241.7V669.3l298 101.6 298-101.6v-427.6zM430.5 578h-46c-1.7 0-3.3-0.4-4.8-1.2-4.8-2.6-6.6-8.7-4-13.6l88-161.1h-45.2c-5.5 0-10-4.5-10-10v-21.3c0-5.5 4.5-10 10-10h63.1v-29.7h-63.1c-5.5 0-10-4.5-10-10v-21.3c0-5.5 4.5-10 10-10h63.1V238c0-5.5 4.5-10 10-10h41.3c5.5 0 10 4.5 10 10v51.8h63.4c5.5 0 10 4.5 10 10v21.3c0 5.5-4.5 10-10 10h-63.4v29.7h63.4c5.5 0 10 4.5 10 10v21.3c0 5.5-4.5 10-10 10h-45.7l87.7 161.1c0.8 1.5 1.2 3.1 1.2 4.8 0 5.5-4.5 10-10 10h-45c-3.8 0-7.2-2.1-8.9-5.5l-73.2-144.3-72.9 144.3c-1.7 3.4-5.2 5.5-9 5.5z"  horiz-adv-x="1024" />

    
    <glyph glyph-name="safetycertificate" unicode="&#59329;" d="M866.9 726.1L527.1 841.9C523 843.3 517.5 844 512 844s-11-0.7-15.1-2.1L157.1 726.1c-8.3-2.8-15.1-12.4-15.1-21.2v-482.4c0-8.8 5.7-20.4 12.6-25.9L499.3-72c3.5-2.7 8-4.1 12.6-4.1s9.2 1.4 12.6 4.1l344.7 268.6c6.9 5.4 12.6 17 12.6 25.9V704.9c0.2 8.8-6.6 18.3-14.9 21.2zM810 241.7L512 9.5 214 241.7V669.3l298 101.6 298-101.6v-427.6zM404.2 442.7c-3 4.1-7.8 6.6-13 6.6H336c-6.5 0-10.3-7.4-6.5-12.7l126.4-174c6.4-8.8 19.6-8.8 26 0l212.6 292.7c3.8 5.3 0 12.7-6.5 12.7h-55.2c-5.1 0-10-2.5-13-6.6L468.9 353.6l-64.7 89.1z"  horiz-adv-x="1024" />

    
    <glyph glyph-name="delete" unicode="&#59331;" d="M360 712h-8c4.4 0 8 3.6 8 8v-8h304v8c0-4.4 3.6-8 8-8h-8v-72h72v80c0 35.3-28.7 64-64 64H352c-35.3 0-64-28.7-64-64v-80h72v72zM864 640H160c-17.7 0-32-14.3-32-32v-32c0-4.4 3.6-8 8-8h60.4l24.7-523c1.6-34.1 29.8-61 63.9-61h454c34.2 0 62.3 26.8 63.9 61l24.7 523H888c4.4 0 8 3.6 8 8v32c0 17.7-14.3 32-32 32zM731.3 56H292.7l-24.2 512h487l-24.2-512z"  horiz-adv-x="1024" />

    
    <glyph glyph-name="USB" unicode="&#59333;" d="M760 464V752c0 17.7-14.3 32-32 32H296c-17.7 0-32-14.3-32-32v-288c-66.2 0-120-52.1-120-116v-356c0-4.4 3.6-8 8-8h56c4.4 0 8 3.6 8 8V348c0 24.3 21.6 44 48.1 44H759.9c26.5 0 48.1-19.7 48.1-44v-356c0-4.4 3.6-8 8-8h56c4.4 0 8 3.6 8 8V348c0 63.9-53.8 116-120 116z m-424 0V712h352v-248H336zM456 648h-48c-4.4 0-8-3.6-8-8v-48c0-4.4 3.6-8 8-8h48c4.4 0 8 3.6 8 8v48c0 4.4-3.6 8-8 8zM616 648h-48c-4.4 0-8-3.6-8-8v-48c0-4.4 3.6-8 8-8h48c4.4 0 8 3.6 8 8v48c0 4.4-3.6 8-8 8z"  horiz-adv-x="1024" />

    
    <glyph glyph-name="home" unicode="&#59334;" d="M946.5 391L560.1 777.2l-25.9 25.9c-12.3 12.2-32.1 12.2-44.4 0L77.5 391c-12.3-12.3-18.9-28.6-18.8-46 0.4-35.2 29.7-63.3 64.9-63.3h42.5V-44h691.8V281.7h43.4c17.1 0 33.2 6.7 45.3 18.8 12.1 12.1 18.7 28.2 18.7 45.3 0 17-6.7 33.1-18.8 45.2zM568 28H456V232h112v-204z m217.9 325.7V28H632V256c0 22.1-17.9 40-40 40H432c-22.1 0-40-17.9-40-40v-228H238.1V353.7h-96l370 369.7 23.1-23.1L882 353.7h-96.1z"  horiz-adv-x="1024" />

    
    <glyph glyph-name="bank" unicode="&#59335;" d="M894 434c30.9 0 43.8 39.7 18.7 58L530.8 769.8a31.81 31.81 0 0 1-37.6 0L111.3 492c-25.1-18.2-12.2-58 18.8-58H192v-374h-72c-4.4 0-8-3.6-8-8v-52c0-4.4 3.6-8 8-8h784c4.4 0 8 3.6 8 8v52c0 4.4-3.6 8-8 8h-72V434h62zM512 699.3l271.1-197.2H240.9L512 699.3zM264 434h117v-374H264V434z m189 0h117v-374H453V434z m307-374H642V434h118v-374z"  horiz-adv-x="1024" />

    
    <glyph glyph-name="filter" unicode="&#59336;" d="M880.1 742H143.9c-24.5 0-39.8-26.7-27.5-48L349 298.6V58c0-17.7 14.2-32 31.8-32h262.4c17.6 0 31.8 14.3 31.8 32V298.6L907.7 694c12.2 21.3-3.1 48-27.6 48zM603.4 98H420.6V254h182.9v-156z m9.6 236.6l-9.5-16.6h-183l-9.5 16.6L212.7 670h598.6L613 334.6z"  horiz-adv-x="1024" />

    
    <glyph glyph-name="funnelplot" unicode="&#59337;" d="M880.1 742H143.9c-24.5 0-39.8-26.7-27.5-48L349 288.6V58c0-17.7 14.2-32 31.8-32h262.4c17.6 0 31.8 14.3 31.8 32V288.6L907.7 694c12.2 21.3-3.1 48-27.6 48zM603.4 98H420.6V246h182.9v-148z m9.6 226.6l-8.4-14.6H419.3l-8.4 14.6L334.4 458h355.2L613 324.6zM726.3 522H297.7l-85 148h598.6l-85-148z"  horiz-adv-x="1024" />

    
    <glyph glyph-name="like" unicode="&#59338;" d="M885.9 362.3c16.8 22.2 26.1 49.4 26.1 77.7 0 44.9-25.1 87.4-65.5 111.1a67.67 67.67 0 0 1-34.3 9.3H572.4l6 122.9c1.4 29.7-9.1 57.9-29.5 79.4-20.5 21.5-48.1 33.4-77.9 33.4-52 0-98-35-111.8-85.1l-85.9-311H144c-17.7 0-32-14.3-32-32v-364c0-17.7 14.3-32 32-32h601.3c9.2 0 18.2 1.8 26.5 5.4 47.6 20.3 78.3 66.8 78.3 118.4 0 12.6-1.8 25-5.4 37 16.8 22.2 26.1 49.4 26.1 77.7 0 12.6-1.8 25-5.4 37 16.8 22.2 26.1 49.4 26.1 77.7-0.2 12.6-2 25.1-5.6 37.1zM184 44V328h81v-284h-81z m636.4 353l-21.9-19 13.9-25.4c4.6-8.4 6.9-17.6 6.9-27.3 0-16.5-7.2-32.2-19.6-43l-21.9-19 13.9-25.4c4.6-8.4 6.9-17.6 6.9-27.3 0-16.5-7.2-32.2-19.6-43l-21.9-19 13.9-25.4c4.6-8.4 6.9-17.6 6.9-27.3 0-22.4-13.2-42.6-33.6-51.8H329V331.2l99.5 360.5c5.2 18.9 22.5 32.2 42.2 32.3 7.6 0 15.1-2.2 21.1-6.7 9.9-7.4 15.2-18.6 14.6-30.5l-9.6-198.4h314.4C829 477.5 840 459.1 840 440c0-16.5-7.2-32.1-19.6-43z"  horiz-adv-x="1024" />

    
    <glyph glyph-name="unlike" unicode="&#59339;" d="M885.9 405.7c3.6 12 5.4 24.4 5.4 37 0 28.3-9.3 55.5-26.1 77.7 3.6 12 5.4 24.4 5.4 37 0 28.3-9.3 55.5-26.1 77.7 3.6 12 5.4 24.4 5.4 37 0 51.6-30.7 98.1-78.3 118.4-8.3 3.6-17.2 5.4-26.5 5.4H144c-17.7 0-32-14.3-32-32v-364c0-17.7 14.3-32 32-32h129.3l85.8-310.8C372.9 7 418.9-28 470.9-28c29.7 0 57.4 11.8 77.9 33.4 20.5 21.5 31 49.7 29.5 79.4l-6 122.9h239.9c12.1 0 23.9 3.2 34.3 9.3 40.4 23.5 65.5 66.1 65.5 111 0 28.3-9.3 55.5-26.1 77.7zM184 440V724h81v-284h-81z m627.2-160.4H496.8l9.6-198.4c0.6-11.9-4.7-23.1-14.6-30.5-6.1-4.5-13.6-6.8-21.1-6.7-19.6 0.1-36.9 13.4-42.2 32.3L329 436.8V724h415.4c20.4-9.2 33.6-29.4 33.6-51.8 0-9.7-2.3-18.9-6.9-27.3l-13.9-25.4 21.9-19c12.5-10.8 19.6-26.5 19.6-43 0-9.7-2.3-18.9-6.9-27.3l-13.9-25.4 21.9-19c12.5-10.8 19.6-26.5 19.6-43 0-9.7-2.3-18.9-6.9-27.3l-14-25.5 21.9-19c12.5-10.8 19.6-26.5 19.6-43 0-19.1-11-37.5-28.8-48.4z"  horiz-adv-x="1024" />

    
    <glyph glyph-name="unlock" unicode="&#59340;" d="M832 432H332V656c0 30.9 25.1 56 56 56h248c30.9 0 56-25.1 56-56v-68c0-4.4 3.6-8 8-8h56c4.4 0 8 3.6 8 8v68c0 70.7-57.3 128-128 128H388c-70.7 0-128-57.3-128-128v-224h-68c-17.7 0-32-14.3-32-32v-384c0-17.7 14.3-32 32-32h640c17.7 0 32 14.3 32 32V400c0 17.7-14.3 32-32 32z m-40-376H232V360h560v-304zM484 195v-53c0-4.4 3.6-8 8-8h40c4.4 0 8 3.6 8 8v53c12.1 8.7 20 22.9 20 39 0 26.5-21.5 48-48 48s-48-21.5-48-48c0-16.1 7.9-30.3 20-39z"  horiz-adv-x="1024" />

    
    <glyph glyph-name="lock" unicode="&#59341;" d="M832 432h-68V656c0 70.7-57.3 128-128 128H388c-70.7 0-128-57.3-128-128v-224h-68c-17.7 0-32-14.3-32-32v-384c0-17.7 14.3-32 32-32h640c17.7 0 32 14.3 32 32V400c0 17.7-14.3 32-32 32zM332 656c0 30.9 25.1 56 56 56h248c30.9 0 56-25.1 56-56v-224H332V656z m460-600H232V360h560v-304zM484 195v-53c0-4.4 3.6-8 8-8h40c4.4 0 8 3.6 8 8v53c12.1 8.7 20 22.9 20 39 0 26.5-21.5 48-48 48s-48-21.5-48-48c0-16.1 7.9-30.3 20-39z"  horiz-adv-x="1024" />

    
    <glyph glyph-name="shopping" unicode="&#59343;" d="M832 584H696v16c0 101.6-82.4 184-184 184s-184-82.4-184-184v-16H192c-17.7 0-32-14.3-32-32v-536c0-17.7 14.3-32 32-32h640c17.7 0 32 14.3 32 32V552c0 17.7-14.3 32-32 32z m-432 16c0 61.9 50.1 112 112 112s112-50.1 112-112v-16H400v16z m392-544H232V512h96v-88c0-4.4 3.6-8 8-8h56c4.4 0 8 3.6 8 8v88h224v-88c0-4.4 3.6-8 8-8h56c4.4 0 8 3.6 8 8v88h96v-456z"  horiz-adv-x="1024" />

    
    <glyph glyph-name="boxplot" unicode="&#59349;" d="M952 672h-52c-4.4 0-8-3.6-8-8v-248h-92V592c0 4.4-3.6 8-8 8H232c-4.4 0-8-3.6-8-8v-176h-92V664c0 4.4-3.6 8-8 8H72c-4.4 0-8-3.6-8-8v-560c0-4.4 3.6-8 8-8h52c4.4 0 8 3.6 8 8V348h92v-172c0-4.4 3.6-8 8-8h560c4.4 0 8 3.6 8 8V348h92v-244c0-4.4 3.6-8 8-8h52c4.4 0 8 3.6 8 8V664c0 4.4-3.6 8-8 8zM296 528h88v-288h-88V528z m432-288H448V528h280v-288z"  horiz-adv-x="1024" />

    
    <glyph glyph-name="build" unicode="&#59350;" d="M916 686H376c-17.7 0-32-14.3-32-32v-236H108c-17.7 0-32-14.3-32-32v-272c0-17.7 14.3-32 32-32h540c17.7 0 32 14.3 32 32V350h236c17.7 0 32 14.3 32 32V654c0 17.7-14.3 32-32 32z m-504-68h200v-200H412V618z m-68-468H144V350h200v-200z m268 0H412V350h200v-200z m268 268H680V618h200v-200z"  horiz-adv-x="1024" />

    
    <glyph glyph-name="sliders" unicode="&#59351;" d="M320 672h-66v56c0 4.4-3.6 8-8 8h-52c-4.4 0-8-3.6-8-8v-56h-66c-4.4 0-8-3.6-8-8v-560c0-4.4 3.6-8 8-8h66v-56c0-4.4 3.6-8 8-8h52c4.4 0 8 3.6 8 8v56h66c4.4 0 8 3.6 8 8V664c0 4.4-3.6 8-8 8z m-60-508h-80V604h80v-440zM904 600h-66v96c0 4.4-3.6 8-8 8h-52c-4.4 0-8-3.6-8-8v-96h-66c-4.4 0-8-3.6-8-8v-416c0-4.4 3.6-8 8-8h66v-96c0-4.4 3.6-8 8-8h52c4.4 0 8 3.6 8 8v96h66c4.4 0 8 3.6 8 8V592c0 4.4-3.6 8-8 8z m-60-364h-80V532h80v-296zM612 492h-66V664c0 4.4-3.6 8-8 8h-52c-4.4 0-8-3.6-8-8v-172h-66c-4.4 0-8-3.6-8-8v-200c0-4.4 3.6-8 8-8h66v-172c0-4.4 3.6-8 8-8h52c4.4 0 8 3.6 8 8V276h66c4.4 0 8 3.6 8 8V484c0 4.4-3.6 8-8 8z m-60-145c0-1.6-1.3-3-3-3h-74c-1.6 0-3 1.3-3 3v74c0 1.6 1.3 3 3 3h74c1.6 0 3-1.3 3-3v-74z"  horiz-adv-x="1024" />

    
    <glyph glyph-name="camera" unicode="&#59352;" d="M864 648H728l-32.4 90.8C691 751.5 679 760 665.4 760H358.6c-13.5 0-25.6-8.5-30.1-21.2L296 648H160c-44.2 0-80-35.8-80-80v-456c0-44.2 35.8-80 80-80h704c44.2 0 80 35.8 80 80V568c0 44.2-35.8 80-80 80z m8-536c0-4.4-3.6-8-8-8H160c-4.4 0-8 3.6-8 8V568c0 4.4 3.6 8 8 8h186.7l17.1 47.8 22.9 64.2h250.5l22.9-64.2 17.1-47.8H864c4.4 0 8-3.6 8-8v-456zM512 512c-88.4 0-160-71.6-160-160s71.6-160 160-160 160 71.6 160 160-71.6 160-160 160z m0-256c-53 0-96 43-96 96s43 96 96 96 96-43 96-96-43-96-96-96z"  horiz-adv-x="1024" />

    
    <glyph glyph-name="cluster" unicode="&#59353;" d="M888 216h-54V356H546v92h238c8.8 0 16 7.2 16 16V728c0 8.8-7.2 16-16 16H240c-8.8 0-16-7.2-16-16v-264c0-8.8 7.2-16 16-16h238v-92H190v-140h-54c-4.4 0-8-3.6-8-8v-176c0-4.4 3.6-8 8-8h176c4.4 0 8 3.6 8 8V208c0 4.4-3.6 8-8 8h-54v72h220v-72h-54c-4.4 0-8-3.6-8-8v-176c0-4.4 3.6-8 8-8h176c4.4 0 8 3.6 8 8V208c0 4.4-3.6 8-8 8h-54v72h220v-72h-54c-4.4 0-8-3.6-8-8v-176c0-4.4 3.6-8 8-8h176c4.4 0 8 3.6 8 8V208c0 4.4-3.6 8-8 8zM256 90.7c0-1.5-1.2-2.7-2.7-2.7h-58.7c-1.5 0-2.7 1.2-2.7 2.7v58.7c0 1.5 1.2 2.7 2.7 2.7h58.7c1.5 0 2.7-1.2 2.7-2.7v-58.7z m288 0c0-1.5-1.2-2.7-2.7-2.7h-58.7c-1.5 0-2.7 1.2-2.7 2.7v58.7c0 1.5 1.2 2.7 2.7 2.7h58.7c1.5 0 2.7-1.2 2.7-2.7v-58.7zM288 512V680h448v-168H288z m544-421.3c0-1.5-1.2-2.7-2.7-2.7h-58.7c-1.5 0-2.7 1.2-2.7 2.7v58.7c0 1.5 1.2 2.7 2.7 2.7h58.7c1.5 0 2.7-1.2 2.7-2.7v-58.7zM400 596m-40 0a40 40 0 1 1 80 0 40 40 0 1 1-80 0Z"  horiz-adv-x="1024" />

    
    <glyph glyph-name="gateway" unicode="&#59354;" d="M928 504c8.8 0 16 7.2 16 16V704c0 8.8-7.2 16-16 16H744c-8.8 0-16-7.2-16-16v-56H296v56c0 8.8-7.2 16-16 16H96c-8.8 0-16-7.2-16-16v-184c0-8.8 7.2-16 16-16h56v-240H96c-8.8 0-16-7.2-16-16v-184c0-8.8 7.2-16 16-16h184c8.8 0 16 7.2 16 16v56h432v-56c0-8.8 7.2-16 16-16h184c8.8 0 16 7.2 16 16V248c0 8.8-7.2 16-16 16h-56V504h56zM792 656h88v-88h-88v88z m-648-88v88h88v-88h-88z m88-456h-88v88h88v-88z m648 88v-88h-88v88h88z m-80 64h-56c-8.8 0-16-7.2-16-16v-56H296v56c0 8.8-7.2 16-16 16h-56V504h56c8.8 0 16 7.2 16 16v56h432v-56c0-8.8 7.2-16 16-16h56v-240z"  horiz-adv-x="1024" />

    
    <glyph glyph-name="car" unicode="&#59355;" d="M380 192h264c4.4 0 8 3.6 8 8v84c0 4.4-3.6 8-8 8h-40c-4.4 0-8-3.6-8-8v-36H428v36c0 4.4-3.6 8-8 8h-40c-4.4 0-8-3.6-8-8v-84c0-4.4 3.6-8 8-8zM760 315m-40 0a40 40 0 1 1 80 0 40 40 0 1 1-80 0ZM959 482.6L935.3 524c-2.2 3.8-7.1 5.1-10.9 2.9l-50.7-29.6-78.3 216.2c-8.5 26.5-33.1 44.4-60.9 44.4H301.2c-34.7 0-65.5-22.4-76.2-55.5l-74.6-205.2-50.8 29.6c-3.8 2.2-8.7 0.9-10.9-2.9L65 482.6c-2.2-3.8-0.9-8.6 2.9-10.8l60.4-35.2-14.5-40c-1.2-3.2-1.8-6.6-1.8-10V38.4c0-15.7 11.8-28.4 26.3-28.4h67.6c12.3 0 23 9.3 25.6 22.3l7.7 37.7h545.6l7.7-37.7c2.7-13 13.3-22.3 25.6-22.3h67.6c14.5 0 26.3 12.7 26.3 28.4V386.6c0 3.4-0.6 6.8-1.8 10l-14.5 40 60.3 35.2c3.8 2.2 5.1 7 3 10.8zM840 379v-237H184V379l15.6 43h624.8l15.6-43zM292.7 677.9l0.5 1.3 0.4 1.3c1.1 3.3 4.1 5.5 7.6 5.5h427.6l75.4-208H220l72.7 199.9zM264 315m-40 0a40 40 0 1 1 80 0 40 40 0 1 1-80 0Z"  horiz-adv-x="1024" />

    
    <glyph glyph-name="cloud-upload" unicode="&#59356;" d="M518.3 437c-3.2 4.1-9.4 4.1-12.6 0l-112-141.7c-4.1-5.2-0.4-12.9 6.3-12.9h73.9V40c0-4.4 3.6-8 8-8h60c4.4 0 8 3.6 8 8V282.29999999999995H624c6.7 0 10.4 7.7 6.3 12.9L518.3 437zM811.4 529.3C765.6 650.1 648.9 736 512.2 736S258.8 650.2 213 529.4C127.3 506.9 64 428.8 64 336c0-110.5 89.5-200 199.9-200H304c4.4 0 8 3.6 8 8v60c0 4.4-3.6 8-8 8h-40.1c-33.7 0-65.4 13.4-89 37.7-23.5 24.2-36 56.8-34.9 90.6 0.9 26.4 9.9 51.2 26.2 72.1 16.7 21.3 40.1 36.8 66.1 43.7l37.9 9.9 13.9 36.6c8.6 22.8 20.6 44.1 35.7 63.4 14.9 19.2 32.6 35.9 52.4 49.9 41.1 28.9 89.5 44.2 140 44.2s98.9-15.3 140-44.2c19.9-14 37.5-30.8 52.4-49.9 15.1-19.3 27.1-40.7 35.7-63.4l13.8-36.5 37.8-10C846.1 441.5 884 392.2 884 336c0-33.1-12.9-64.3-36.3-87.7-23.4-23.4-54.5-36.3-87.6-36.3H720c-4.4 0-8-3.6-8-8v-60c0-4.4 3.6-8 8-8h40.1C870.5 136 960 225.5 960 336c0 92.7-63.1 170.7-148.6 193.3z"  horiz-adv-x="1024" />

    
    <glyph glyph-name="cloud" unicode="&#59357;" d="M811.4 477.3C765.6 598.1 648.9 684 512.2 684S258.8 598.2 213 477.4C127.3 454.9 64 376.9 64 284c0-110.5 89.5-200 199.9-200h496.2C870.5 84 960 173.5 960 284c0 92.7-63.1 170.7-148.6 193.3z m36.3-281c-23.4-23.4-54.5-36.3-87.6-36.3H263.9c-33.1 0-64.2 12.9-87.6 36.3-23.4 23.4-36.3 54.6-36.3 87.7 0 28 9.1 54.3 26.2 76.3 16.7 21.3 40.2 36.8 66.1 43.7l37.9 9.9 13.9 36.6c8.6 22.8 20.6 44.1 35.7 63.4 14.9 19.2 32.6 35.9 52.4 49.9 41.1 28.9 89.5 44.2 140 44.2s98.9-15.3 140-44.2c19.9-14 37.5-30.8 52.4-49.9 15.1-19.3 27.1-40.7 35.7-63.4l13.8-36.5 37.8-10c54.3-14.5 92.1-63.8 92.1-120 0-33.1-12.9-64.3-36.3-87.7z"  horiz-adv-x="1024" />

    
    <glyph glyph-name="cloud-download" unicode="&#59358;" d="M624 189.70000000000005h-74.1V432c0 4.4-3.6 8-8 8h-60c-4.4 0-8-3.6-8-8v-242.3H400c-6.7 0-10.4-7.7-6.3-12.9l112-141.7c3.2-4.1 9.4-4.1 12.6 0l112 141.7c4.1 5.2 0.4 12.9-6.3 12.9zM811.4 529.3C765.6 650.1 648.9 736 512.2 736S258.8 650.2 213 529.4C127.3 506.9 64 428.8 64 336c0-110.5 89.5-200 199.9-200H304c4.4 0 8 3.6 8 8v60c0 4.4-3.6 8-8 8h-40.1c-33.7 0-65.4 13.4-89 37.7-23.5 24.2-36 56.8-34.9 90.6 0.9 26.4 9.9 51.2 26.2 72.1 16.7 21.3 40.1 36.8 66.1 43.7l37.9 9.9 13.9 36.6c8.6 22.8 20.6 44.1 35.7 63.4 14.9 19.2 32.6 35.9 52.4 49.9 41.1 28.9 89.5 44.2 140 44.2s98.9-15.3 140-44.2c19.9-14 37.5-30.8 52.4-49.9 15.1-19.3 27.1-40.7 35.7-63.4l13.8-36.5 37.8-10C846.1 441.5 884 392.2 884 336c0-33.1-12.9-64.3-36.3-87.7-23.4-23.4-54.5-36.3-87.6-36.3H720c-4.4 0-8-3.6-8-8v-60c0-4.4 3.6-8 8-8h40.1C870.5 136 960 225.5 960 336c0 92.7-63.1 170.7-148.6 193.3z"  horiz-adv-x="1024" />

    
    <glyph glyph-name="video" unicode="&#59359;" d="M912 593.7L784 520V672c0 35.3-28.7 64-64 64H128c-35.3 0-64-28.7-64-64v-576c0-35.3 28.7-64 64-64h592c35.3 0 64 28.7 64 64V248l128-73.7c21.3-12.3 48 3.1 48 27.6V566c0 24.6-26.7 40-48 27.7zM712 104H136V664h576v-560z m176 167l-104 59.8V437.1L888 497v-226zM208 536h112c4.4 0 8 3.6 8 8v48c0 4.4-3.6 8-8 8H208c-4.4 0-8-3.6-8-8v-48c0-4.4 3.6-8 8-8z"  horiz-adv-x="1024" />

    
    <glyph glyph-name="notification" unicode="&#59360;" d="M880 784c-3.8 0-7.7-0.7-11.6-2.3L292 550.1H128c-8.8 0-16-7.4-16-16.6v-299c0-9.2 7.2-16.6 16-16.6h101.7c-3.7-11.6-5.7-23.9-5.7-36.4 0-65.9 53.8-119.5 120-119.5 55.4 0 102.1 37.6 115.9 88.4l408.6-164.2c3.9-1.5 7.8-2.3 11.6-2.3 16.9 0 32 14.2 32 33.2V750.8C912 769.8 897 784 880 784zM344 133.7c-26.5 0-48 21.4-48 47.8 0 11.2 3.9 21.9 11 30.4l84.9-34.1c-2-24.6-22.7-44.1-47.9-44.1z m496-58.4L318.8 284.7l-12.9 5.2H184V478.1h121.9l12.9 5.2L840 692.7v-617.4z"  horiz-adv-x="1024" />

    
    <glyph glyph-name="sound" unicode="&#59361;" d="M625.9 781c-5.9 0-11.9-1.6-17.4-5.3L254 544H90c-8.8 0-16-7.2-16-16v-288c0-8.8 7.2-16 16-16h164l354.5-231.7c5.5-3.6 11.6-5.3 17.4-5.3 16.7 0 32.1 13.3 32.1 32.1V748.9c0 18.8-15.4 32.1-32.1 32.1zM586 93L293.4 284.3l-18 11.7H146V472h129.4l17.9 11.7L586 675v-582zM934 420H806c-8.8 0-16-7.2-16-16v-40c0-8.8 7.2-16 16-16h128c8.8 0 16 7.2 16 16v40c0 8.8-7.2 16-16 16zM892.1 158.2l-110.3 63.7c-2.5 1.4-5.2 2.1-7.9 2.1-5.5 0-10.9-2.9-13.8-8l-19.9-34.5c-4.4-7.6-1.8-17.4 5.8-21.8L856.3 96c2.5-1.4 5.2-2.1 7.9-2.1 5.5 0 10.9 2.9 13.8 8l19.9 34.5c4.4 7.6 1.7 17.4-5.8 21.8zM760 552c2.9-5.1 8.3-8 13.8-8 2.7 0 5.4 0.7 7.9 2.1L892 609.8c7.6 4.4 10.2 14.2 5.8 21.8L878 666c-2.9 5.1-8.3 8-13.8 8-2.7 0-5.4-0.7-7.9-2.1L746 608.2c-7.6-4.4-10.2-14.2-5.8-21.8L760 552z"  horiz-adv-x="1024" />

    
    <glyph glyph-name="fund" unicode="&#59362;" d="M926 732H94c-17.7 0-32-14.3-32-32v-640c0-17.7 14.3-32 32-32h832c17.7 0 32 14.3 32 32V700c0 17.7-14.3 32-32 32z m-40-632H134V660h752v-560zM227.1 182.3c3.1-3.1 8.2-3.1 11.3 0l172.5 172.5 114.4-114.5c3.1-3.1 8.2-3.1 11.3 0l297 297.2c3.1 3.1 3.1 8.2 0 11.3l-36.8 36.8c-3.1 3.1-8.2 3.1-11.3 0L531 331 416.6 445.5c-3.1 3.1-8.2 3.1-11.3 0l-214.9-215c-3.1-3.1-3.1-8.2 0-11.3l36.7-36.9z"  horiz-adv-x="1024" />

    
    <glyph glyph-name="heart" unicode="&#59363;" d="M923 612.4c-13.4 31.1-32.6 58.9-56.9 82.8-24.3 23.8-52.5 42.4-84 55.5-32.5 13.5-66.9 20.3-102.4 20.3-49.3 0-97.4-13.5-139.2-39-10-6.1-19.5-12.8-28.5-20.1-9 7.3-18.5 14-28.5 20.1-41.8 25.5-89.9 39-139.2 39-35.5 0-69.9-6.8-102.4-20.3-31.4-13-59.7-31.7-84-55.5-24.4-23.9-43.5-51.7-56.9-82.8-13.9-32.3-21-66.6-21-101.9 0-33.3 6.8-68 20.3-103.3 11.3-29.5 27.5-60.1 48.2-91 32.8-48.9 77.9-99.9 133.9-151.6 92.8-85.7 184.7-144.9 188.6-147.3l23.7-15.2c10.5-6.7 24-6.7 34.5 0l23.7 15.2c3.9 2.5 95.7 61.6 188.6 147.3 56 51.7 101.1 102.7 133.9 151.6 20.7 30.9 37 61.5 48.2 91 13.5 35.3 20.3 70 20.3 103.3 0.1 35.3-7 69.6-20.9 101.9zM512 81.2S156 309.3 156 510.5C156 612.4 240.3 695 344.3 695c73.1 0 136.5-40.8 167.7-100.4C543.2 654.2 606.6 695 679.7 695c104 0 188.3-82.6 188.3-184.5 0-201.2-356-429.3-356-429.3z"  horiz-adv-x="1024" />

    
    <glyph glyph-name="star" unicode="&#59364;" d="M908.1 542.9l-253.9 36.9L540.7 809.9c-3.1 6.3-8.2 11.4-14.5 14.5-15.8 7.8-35 1.3-42.9-14.5L369.8 579.8l-253.9-36.9c-7-1-13.4-4.3-18.3-9.3-12.3-12.7-12.1-32.9 0.6-45.3l183.7-179.1-43.4-252.9c-1.2-6.9-0.1-14.1 3.2-20.3 8.2-15.6 27.6-21.7 43.2-13.4L512 142l227.1-119.4c6.2-3.3 13.4-4.4 20.3-3.2 17.4 3 29.1 19.5 26.1 36.9l-43.4 252.9 183.7 179.1c5 4.9 8.3 11.3 9.3 18.3 2.7 17.5-9.5 33.7-27 36.3zM664.8 334.4l36.1-210.3L512 223.3 323.1 124l36.1 210.3-152.8 149L417.6 514 512 705.3 606.4 514l211.2-30.7-152.8-148.9z"  horiz-adv-x="1024" />

    
    <glyph glyph-name="wifi" unicode="&#59365;" d="M723 275.5C666.8 324.4 593.4 354 513 354s-153.8-29.6-210.1-78.6c-3.2-2.8-3.6-7.8-0.8-11.2l36-42.9c2.9-3.4 8-3.8 11.4-0.9C393.1 258.8 450.3 282 513 282s119.9-23.2 163.5-61.5c3.4-2.9 8.5-2.5 11.4 0.9l36 42.9c2.8 3.3 2.4 8.3-0.9 11.2zM840.4 415.6C751.7 489.5 637.6 534 513 534s-238.7-44.5-327.5-118.4c-3.4-2.8-3.8-7.9-1-11.3l36-42.9c2.8-3.4 7.9-3.8 11.2-1C308 423.8 406.1 462 513 462s205-38.2 281.2-101.6c3.4-2.8 8.4-2.4 11.2 1l36 42.9c2.8 3.4 2.4 8.5-1 11.3zM957.1 554.6C835.7 654.2 680.3 714 511 714c-168.2 0-322.6-59-443.7-157.4-3.5-2.8-4-7.9-1.1-11.4l36-42.9c2.8-3.3 7.8-3.8 11.1-1.1C222 589.3 360.3 642 511 642c151.8 0 291-53.5 400-142.7 3.4-2.8 8.4-2.3 11.2 1.1l36 42.9c2.9 3.4 2.4 8.5-1.1 11.3zM512 118m-64 0a64 64 0 1 1 128 0 64 64 0 1 1-128 0Z"  horiz-adv-x="1024" />

    
    <glyph glyph-name="attachment" unicode="&#59366;" d="M779.3 699.4c-94.2 94.2-247.6 94.2-341.7 0l-261-260.8c-1.7-1.7-2.6-4-2.6-6.4s0.9-4.7 2.6-6.4l36.9-36.9c3.5-3.5 9.2-3.5 12.7 0l261 260.8c32.4 32.4 75.5 50.2 121.3 50.2s88.9-17.8 121.2-50.2c32.4-32.4 50.2-75.5 50.2-121.2 0-45.8-17.8-88.8-50.2-121.2l-266-265.9-43.1-43.1c-40.3-40.3-105.8-40.3-146.1 0-19.5 19.5-30.2 45.4-30.2 73s10.7 53.5 30.2 73l263.9 263.8c6.7 6.6 15.5 10.3 24.9 10.3h0.1c9.4 0 18.1-3.7 24.7-10.3 6.7-6.7 10.3-15.5 10.3-24.9 0-9.3-3.7-18.1-10.3-24.7L372.4 243c-1.7-1.7-2.6-4-2.6-6.4s0.9-4.7 2.6-6.4l36.9-36.9c3.5-3.5 9.2-3.5 12.7 0l215.6 215.6c19.9 19.9 30.8 46.3 30.8 74.4s-11 54.6-30.8 74.4c-41.1 41.1-107.9 41-149 0L463 532 224.8 293.9C192 261.1 174 217.6 174 171.2c0-46.3 18.1-89.8 50.8-122.5 33.9-33.8 78.3-50.7 122.7-50.7 44.4 0 88.8 16.9 122.6 50.7l309.2 309C824.8 403.3 850 464 850 528.5c0.1 64.6-25.1 125.3-70.7 170.9z"  horiz-adv-x="1024" />

    
    <glyph glyph-name="edit" unicode="&#59367;" d="M257.7 144c2 0 4 0.2 6 0.5L431.9 174c2 0.4 3.9 1.3 5.3 2.8l423.9 423.9c3.9 3.9 3.9 10.2 0 14.1L694.9 781.1c-1.9 1.9-4.4 2.9-7.1 2.9s-5.2-1-7.1-2.9L256.8 357.2c-1.5-1.5-2.4-3.3-2.8-5.3l-29.5-168.2c-1.9-11.1 1.5-21.9 9.4-29.8 6.6-6.4 14.9-9.9 23.8-9.9z m67.4 174.4L687.8 681l73.3-73.3-362.7-362.6-88.9-15.7 15.6 89zM880 60H144c-17.7 0-32-14.3-32-32v-36c0-4.4 3.6-8 8-8h784c4.4 0 8 3.6 8 8v36c0 17.7-14.3 32-32 32z"  horiz-adv-x="1024" />

    
    <glyph glyph-name="key" unicode="&#59368;" d="M608 784c-167.9 0-304-136.1-304-304 0-70.3 23.9-135 63.9-186.5l-41.1-41.1-62.3 62.3c-3.1 3.1-8.2 3.1-11.4 0l-39.8-39.8c-3.1-3.1-3.1-8.2 0-11.4l62.3-62.3-44.9-44.9-62.3 62.3c-3.1 3.1-8.2 3.1-11.4 0l-39.8-39.8c-3.1-3.1-3.1-8.2 0-11.4l62.3-62.3-65.3-65.3c-3.1-3.1-3.1-8.2 0-11.3l42.3-42.3c3.1-3.1 8.2-3.1 11.3 0l253.6 253.6C473 199.9 537.7 176 608 176c167.9 0 304 136.1 304 304S775.9 784 608 784z m161.2-465.2C726.2 275.7 668.9 252 608 252c-60.9 0-118.2 23.7-161.2 66.8-43.1 43-66.8 100.3-66.8 161.2 0 60.9 23.7 118.2 66.8 161.2 43 43.1 100.3 66.8 161.2 66.8 60.9 0 118.2-23.7 161.2-66.8 43.1-43 66.8-100.3 66.8-161.2 0-60.9-23.7-118.2-66.8-161.2z"  horiz-adv-x="1024" />

    
    <glyph glyph-name="api" unicode="&#59369;" d="M917.7 747.2l-42.4 42.4c-1.6 1.6-3.6 2.3-5.7 2.3s-4.1-0.8-5.7-2.3l-76.1-76.1c-33.7 22.9-72.9 34.3-112.1 34.3-51.2 0-102.4-19.5-141.5-58.6L432.3 587.3c-3.1-3.1-3.1-8.2 0-11.3L704 304.3c1.6-1.6 3.6-2.3 5.7-2.3 2 0 4.1 0.8 5.7 2.3l101.9 101.9c68.9 69 77 175.7 24.3 253.5l76.1 76.1c3.1 3.2 3.1 8.3 0 11.4zM769.1 454.3l-59.4-59.4-186.8 186.8 59.4 59.4c24.9 24.9 58.1 38.7 93.4 38.7 35.3 0 68.4-13.7 93.4-38.7 24.9-24.9 38.7-58.1 38.7-93.4 0-35.3-13.8-68.4-38.7-93.4zM578.9 349.3c-3.1 3.1-8.2 3.1-11.3 0L501 282.7 410.7 373l66.7 66.7c3.1 3.1 3.1 8.2 0 11.3L441 487.4c-3.1 3.1-8.2 3.1-11.3 0L363 420.7l-43 43c-1.6 1.6-3.6 2.3-5.7 2.3-2 0-4.1-0.8-5.7-2.3L206.8 361.8c-68.9-69-77-175.7-24.3-253.5l-76.1-76.1c-3.1-3.1-3.1-8.2 0-11.3l42.4-42.4c1.6-1.6 3.6-2.3 5.7-2.3s4.1 0.8 5.7 2.3l76.1 76.1c33.7-22.9 72.9-34.3 112.1-34.3 51.2 0 102.4 19.5 141.5 58.6l101.9 101.9c3.1 3.1 3.1 8.2 0 11.3l-43 43 66.7 66.7c3.1 3.1 3.1 8.2 0 11.3l-36.6 36.2zM441.7 126.9c-24.9-24.9-58.1-38.7-93.4-38.7-35.3 0-68.4 13.7-93.4 38.7-24.9 24.9-38.7 58.1-38.7 93.4 0 35.3 13.7 68.4 38.7 93.4l59.4 59.4 186.8-186.8-59.4-59.4z"  horiz-adv-x="1024" />

    
    <glyph glyph-name="disconnect" unicode="&#59370;" d="M832.6 704.6c-84.6 84.6-221.5 84.6-306 0l-96.9-96.9 51-51 96.9 96.9c53.8 53.8 144.6 59.5 204 0 59.5-59.5 53.8-150.2 0-204l-96.9-96.9 51.1-51.1 96.9 96.9c84.4 84.6 84.4 221.5-0.1 306.1zM446.5 114.4c-53.8-53.8-144.6-59.5-204 0-59.5 59.5-53.8 150.2 0 204l96.9 96.9-51.1 51.1-96.9-96.9c-84.6-84.6-84.6-221.5 0-306s221.5-84.6 306 0l96.9 96.9-51 51-96.8-97zM260.3 686.6c-3.1 3.1-8.2 3.1-11.3 0L209.4 647c-3.1-3.1-3.1-8.2 0-11.3l554.4-554.4c3.1-3.1 8.2-3.1 11.3 0l39.6 39.6c3.1 3.1 3.1 8.2 0 11.3L260.3 686.6z"  horiz-adv-x="1024" />

    
    <glyph glyph-name="search" unicode="&#59371;" d="M608 784c-167.9 0-304-136.1-304-304 0-70.3 23.9-135 63.9-186.5L114.3 39.9c-3.1-3.1-3.1-8.2 0-11.3l42.3-42.3c3.1-3.1 8.2-3.1 11.3 0l253.6 253.6C473 199.9 537.7 176 608 176c167.9 0 304 136.1 304 304S775.9 784 608 784z m161.2-465.2C726.2 275.7 668.9 252 608 252s-118.2 23.7-161.2 66.8C403.7 361.8 380 419.1 380 480s23.7 118.2 66.8 161.2c43 43.1 100.3 66.8 161.2 66.8s118.2-23.7 161.2-66.8c43.1-43 66.8-100.3 66.8-161.2s-23.7-118.2-66.8-161.2z"  horiz-adv-x="1024" />

    
    <glyph glyph-name="pushpin" unicode="&#59372;" d="M878.3 503.9L631.9 750.3c-6.5 6.5-15 9.7-23.5 9.7s-17-3.2-23.5-9.7L423.8 589.1c-12.2 1.4-24.5 2-36.8 2-73.2 0-146.4-24.1-206.5-72.3-15.4-12.3-16.7-35.4-2.7-49.4l181.7-181.7-215.4-215.2c-2.6-2.6-4.3-6.1-4.6-9.8l-3.4-37.2c-0.9-9.4 6.6-17.4 15.9-17.4 0.5 0 1 0 1.5 0.1l37.2 3.4c3.7 0.3 7.2 2 9.8 4.6l215.4 215.4 181.7-181.7c6.5-6.5 15-9.7 23.5-9.7 9.7 0 19.3 4.2 25.9 12.4 56.3 70.3 79.7 158.3 70.2 243.4l161.1 161.1c12.9 12.8 12.9 33.8 0 46.8zM666.2 346.7l-24.5-24.5 3.8-34.4c3.7-33.7 1-67.2-8.2-99.7-5.4-19-12.8-37.1-22.2-54.2L262 487.2c12.9 7.1 26.3 13.1 40.3 17.9 27.2 9.4 55.7 14.1 84.7 14.1 9.6 0 19.3-0.5 28.9-1.6l34.4-3.8 24.5 24.5L608.5 672 800 480.5 666.2 346.7z"  horiz-adv-x="1024" />

    
    <glyph glyph-name="shrink" unicode="&#59373;" d="M881.7 708.6l-45.1 45.1c-3.1 3.1-8.2 3.1-11.3 0L667.8 596.1l-54.7 54.7c-4.7 4.7-12.7 1.9-13.5-4.7L576.1 457c-0.6-5.2 3.7-9.5 8.9-8.9l189.2 23.5c6.6 0.8 9.3 8.8 4.7 13.5l-54.7 54.7 157.6 157.6c3 3 3 8.1-0.1 11.2zM439 319.9l-189.2-23.5c-6.6-0.8-9.3-8.9-4.7-13.5l54.7-54.7-157.5-157.5c-3.1-3.1-3.1-8.2 0-11.3l45.1-45.1c3.1-3.1 8.2-3.1 11.3 0l157.6 157.6 54.7-54.7c4.7-4.7 12.7-1.9 13.5 4.7L447.9 311c0.7 5.2-3.7 9.6-8.9 8.9z"  horiz-adv-x="1024" />

    
    <glyph glyph-name="arrawsalt" unicode="&#59374;" d="M855 735.9l-189.2-23.5c-6.6-0.8-9.3-8.8-4.7-13.5l54.7-54.7-153.5-153.5c-3.1-3.1-3.1-8.2 0-11.3l45.1-45.1c3.1-3.1 8.2-3.1 11.3 0l153.6 153.6 54.7-54.7c4.7-4.7 12.7-1.9 13.5 4.7L863.9 727c0.7 5.2-3.7 9.6-8.9 8.9zM416.6 333.7c-3.1 3.1-8.2 3.1-11.3 0L251.8 180.1l-54.7 54.7c-4.7 4.7-12.7 1.9-13.5-4.7L160.1 41c-0.6-5.2 3.7-9.5 8.9-8.9l189.2 23.5c6.6 0.8 9.3 8.8 4.7 13.5l-54.7 54.7 153.6 153.6c3.1 3.1 3.1 8.2 0 11.3l-45.2 45z"  horiz-adv-x="1024" />

    
    <glyph glyph-name="verticalright" unicode="&#59375;" d="M326 732h-64c-4.4 0-8-3.6-8-8v-688c0-4.4 3.6-8 8-8h64c4.4 0 8 3.6 8 8V724c0 4.4-3.6 8-8 8zM770 659.6V732c0 6.8-7.9 10.5-13.1 6.1L335 384l421.9-354.1c5.2-4.4 13.1-0.7 13.1 6.1v72.4c0 9.4-4.2 18.4-11.4 24.5L459.4 384l299.2 251.1c7.2 6.1 11.4 15.1 11.4 24.5z"  horiz-adv-x="1024" />

    
    <glyph glyph-name="verticalleft" unicode="&#59376;" d="M762 732h-64c-4.4 0-8-3.6-8-8v-688c0-4.4 3.6-8 8-8h64c4.4 0 8 3.6 8 8V724c0 4.4-3.6 8-8 8zM254 732v-72.4c0-9.5 4.2-18.4 11.4-24.5L564.6 384 265.4 132.9c-7.2-6.1-11.4-15-11.4-24.5V36c0-6.8 7.9-10.5 13.1-6.1L689 384 267.1 738.1c-5.2 4.4-13.1 0.7-13.1-6.1z"  horiz-adv-x="1024" />

    
    <glyph glyph-name="right" unicode="&#59377;" d="M765.7 409.2L314.9 761.3c-5.3 4.1-12.9 0.4-12.9-6.3v-77.3c0-4.9 2.3-9.6 6.1-12.6l360-281.1-360-281.1c-3.9-3-6.1-7.7-6.1-12.6V13c0-6.7 7.7-10.4 12.9-6.3l450.8 352.1c16.4 12.8 16.4 37.6 0 50.4z"  horiz-adv-x="1024" />

    
    <glyph glyph-name="left" unicode="&#59378;" d="M724 677.7V755c0 6.7-7.7 10.4-12.9 6.3L260.3 409.2c-16.4-12.8-16.4-37.5 0-50.3l450.8-352.1c5.3-4.1 12.9-0.4 12.9 6.3v77.3c0 4.9-2.3 9.6-6.1 12.6l-360 281 360 281.1c3.8 3 6.1 7.7 6.1 12.6z"  horiz-adv-x="1024" />

    
    <glyph glyph-name="up" unicode="&#59379;" d="M890.5 140.7L537.9 626.8c-12.8 17.6-39 17.6-51.7 0L133.5 140.7c-3.8-5.3-0.1-12.7 6.5-12.7h75c5.1 0 9.9 2.5 12.9 6.6L512 526.2l284.1-391.6c3-4.1 7.8-6.6 12.9-6.6h75c6.5 0 10.3 7.4 6.5 12.7z"  horiz-adv-x="1024" />

    
    <glyph glyph-name="down" unicode="&#59380;" d="M884 640h-75c-5.1 0-9.9-2.5-12.9-6.6L512 241.8 227.9 633.4c-3 4.1-7.8 6.6-12.9 6.6h-75c-6.5 0-10.3-7.4-6.5-12.7l352.6-486.1c12.8-17.6 39-17.6 51.7 0l352.6 486.1c3.9 5.3 0.1 12.7-6.4 12.7z"  horiz-adv-x="1024" />

    
    <glyph glyph-name="fullscreen" unicode="&#59381;" d="M290 659.6l43.9 43.9c4.7 4.7 1.9 12.8-4.7 13.6L169 736c-5.1 0.6-9.5-3.7-8.9-8.9L179 566.9c0.8-6.6 8.9-9.4 13.6-4.7l43.7 43.7L370 472.3c3.1-3.1 8.2-3.1 11.3 0l42.4 42.3c3.1 3.1 3.1 8.2 0 11.3L290 659.6zM642.7 472.3c3.1-3.1 8.2-3.1 11.3 0l133.7 133.6 43.7-43.7c4.7-4.7 12.8-1.9 13.6 4.7L863.9 727c0.6 5.1-3.7 9.5-8.9 8.9L694.8 717c-6.6-0.8-9.4-8.9-4.7-13.6l43.9-43.9L600.3 526c-3.1-3.1-3.1-8.2 0-11.3l42.4-42.4zM845 201.1c-0.8 6.6-8.9 9.4-13.6 4.7l-43.7-43.7L654 295.7c-3.1 3.1-8.2 3.1-11.3 0l-42.4-42.3c-3.1-3.1-3.1-8.2 0-11.3L734 108.4l-43.9-43.9c-4.7-4.7-1.9-12.8 4.7-13.6L855 32c5.1-0.6 9.5 3.7 8.9 8.9L845 201.1zM381.3 295.7c-3.1 3.1-8.2 3.1-11.3 0L236.3 162.1l-43.7 43.7c-4.7 4.7-12.8 1.9-13.6-4.7L160.1 41c-0.6-5.1 3.7-9.5 8.9-8.9L329.2 51c6.6 0.8 9.4 8.9 4.7 13.6L290 108.4 423.7 242c3.1 3.1 3.1 8.2 0 11.3l-42.4 42.4z"  horiz-adv-x="1024" />

    
    <glyph glyph-name="fullscreen-exit" unicode="&#59382;" d="M391 655.1c-0.8 6.6-8.9 9.4-13.6 4.7l-43.7-43.7L200 749.7c-3.1 3.1-8.2 3.1-11.3 0l-42.4-42.3c-3.1-3.1-3.1-8.2 0-11.3L280 562.4l-43.9-43.9c-4.7-4.7-1.9-12.8 4.7-13.6L401 486c5.1-0.6 9.5 3.7 8.9 8.9L391 655.1zM401.1 281.9L240.8 263c-6.6-0.8-9.4-8.9-4.7-13.6l43.9-43.9L146.3 72c-3.1-3.1-3.1-8.2 0-11.3l42.4-42.3c3.1-3.1 8.2-3.1 11.3 0L333.7 152l43.7-43.7c4.7-4.7 12.8-1.9 13.6 4.7l18.9 160.1c0.6 5.1-3.7 9.4-8.8 8.8zM622.9 486.1L783.2 505c6.6 0.8 9.4 8.9 4.7 13.6L744 562.4 877.7 696c3.1 3.1 3.1 8.2 0 11.3l-42.4 42.3c-3.1 3.1-8.2 3.1-11.3 0L690.3 616.1l-43.7 43.7c-4.7 4.7-12.8 1.9-13.6-4.7L614.1 495c-0.6-5.2 3.7-9.5 8.8-8.9zM744 205.6l43.9 43.9c4.7 4.7 1.9 12.8-4.7 13.6L623 282c-5.1 0.6-9.5-3.7-8.9-8.9L633 112.9c0.8-6.6 8.9-9.4 13.6-4.7l43.7 43.7L824 18.3c3.1-3.1 8.2-3.1 11.3 0l42.4 42.3c3.1 3.1 3.1 8.2 0 11.3L744 205.6z"  horiz-adv-x="1024" />

    
    <glyph glyph-name="doubleleft" unicode="&#59383;" d="M272.9 384l265.4 339.1c4.1 5.2 0.4 12.9-6.3 12.9h-77.3c-4.9 0-9.6-2.3-12.6-6.1L186.8 403.7c-9.1-11.6-9.1-27.9 0-39.5l255.3-326.1c3-3.9 7.7-6.1 12.6-6.1H532c6.7 0 10.4 7.7 6.3 12.9L272.9 384zM576.9 384l265.4 339.1c4.1 5.2 0.4 12.9-6.3 12.9h-77.3c-4.9 0-9.6-2.3-12.6-6.1L490.8 403.7c-9.1-11.6-9.1-27.9 0-39.5l255.3-326.1c3-3.9 7.7-6.1 12.6-6.1H836c6.7 0 10.4 7.7 6.3 12.9L576.9 384z"  horiz-adv-x="1024" />

    
    <glyph glyph-name="doubleright" unicode="&#59384;" d="M533.2 403.7L277.9 729.9c-3 3.9-7.7 6.1-12.6 6.1H188c-6.7 0-10.4-7.7-6.3-12.9L447.1 384 181.7 44.9c-4.1-5.2-0.4-12.9 6.3-12.9h77.3c4.9 0 9.6 2.3 12.6 6.1l255.3 326.1c9.1 11.7 9.1 27.9 0 39.5zM837.2 403.7L581.9 729.9c-3 3.9-7.7 6.1-12.6 6.1H492c-6.7 0-10.4-7.7-6.3-12.9L751.1 384 485.7 44.9c-4.1-5.2-0.4-12.9 6.3-12.9h77.3c4.9 0 9.6 2.3 12.6 6.1l255.3 326.1c9.1 11.7 9.1 27.9 0 39.5z"  horiz-adv-x="1024" />

    
    <glyph glyph-name="arrowright" unicode="&#59385;" d="M869 408.2L491.2 736.1c-2.9 2.5-6.6 3.9-10.5 3.9h-88.5c-7.4 0-10.8-9.2-5.2-14l350.2-304H152c-4.4 0-8-3.6-8-8v-60c0-4.4 3.6-8 8-8h585.1L386.9 42c-5.6-4.9-2.2-14 5.2-14h91.5c1.9 0 3.8 0.7 5.2 2L869 359.8c14.7 12.8 14.7 35.6 0 48.4z"  horiz-adv-x="1024" />

    
    <glyph glyph-name="arrowup" unicode="&#59386;" d="M868 350.5L536.1 733c-12.7 14.7-35.5 14.7-48.3 0L156 350.5c-4.5-5.2-0.8-13.2 6-13.2h81c4.6 0 9 2 12.1 5.5L474 595.1V32c0-4.4 3.6-8 8-8h60c4.4 0 8 3.6 8 8V595.1l218.9-252.3c3-3.5 7.4-5.5 12.1-5.5h81c6.8 0 10.5 8 6 13.2z"  horiz-adv-x="1024" />

    
    <glyph glyph-name="arrowleft" unicode="&#59387;" d="M872 422H286.9l350.2 304c5.6 4.9 2.2 14-5.2 14h-88.5c-3.9 0-7.6-1.4-10.5-3.9L155 408.2c-14.7-12.8-14.7-35.6 0-48.3L535.1 30c1.5-1.3 3.3-2 5.2-2h91.5c7.4 0 10.8 9.2 5.2 14L286.9 346H872c4.4 0 8 3.6 8 8v60c0 4.4-3.6 8-8 8z"  horiz-adv-x="1024" />

    
    <glyph glyph-name="arrowdown" unicode="&#59388;" d="M862 430.7h-81c-4.6 0-9-2-12.1-5.5L550 172.9V736c0 4.4-3.6 8-8 8h-60c-4.4 0-8-3.6-8-8v-563.1L255.1 425.2c-3 3.5-7.4 5.5-12.1 5.5h-81c-6.8 0-10.5-8.1-6-13.2L487.9 35c12.7-14.7 35.5-14.7 48.3 0L868 417.5c4.5 5.2 0.8 13.2-6 13.2z"  horiz-adv-x="1024" />

    
    <glyph glyph-name="upload" unicode="&#59389;" d="M400 578.3h73.9V240c0-4.4 3.6-8 8-8h60c4.4 0 8 3.6 8 8V578.3H624c6.7 0 10.4 7.7 6.3 12.9L518.3 733c-3.2 4.1-9.4 4.1-12.6 0l-112-141.7c-4.1-5.3-0.4-13 6.3-13zM878 270h-60c-4.4 0-8-3.6-8-8v-154H214V262c0 4.4-3.6 8-8 8h-60c-4.4 0-8-3.6-8-8v-198c0-17.7 14.3-32 32-32h684c17.7 0 32 14.3 32 32V262c0 4.4-3.6 8-8 8z"  horiz-adv-x="1024" />

    
    <glyph glyph-name="vertical-align-botto" unicode="&#59390;" d="M859.9 116H164.1c-4.5 0-8.1-3.6-8.1-8v-60c0-4.4 3.6-8 8.1-8h695.8c4.5 0 8.1 3.6 8.1 8v60c0 4.4-3.6 8-8.1 8zM505.7 227c3.2-4.1 9.4-4.1 12.6 0l112 141.7c4.1 5.2 0.4 12.9-6.3 12.9h-74.1V720c0 4.4-3.6 8-8 8h-60c-4.4 0-8-3.6-8-8v-338.3H400c-6.7 0-10.4-7.7-6.3-12.9l112-141.8z"  horiz-adv-x="1024" />

    
    <glyph glyph-name="vertical-align-middl" unicode="&#59391;" d="M859.9 422H164.1c-4.5 0-8.1-3.6-8.1-8v-60c0-4.4 3.6-8 8.1-8h695.8c4.5 0 8.1 3.6 8.1 8v60c0 4.4-3.6 8-8.1 8zM506.3 496.7c2.9-3.7 8.5-3.7 11.3 0l100.8 127.5c3.7 4.7 0.4 11.7-5.7 11.7H550V792c0 4.4-3.6 8-8 8h-60c-4.4 0-8-3.6-8-8v-156h-62.8c-6 0-9.4-7-5.7-11.7l100.8-127.6zM517.7 271.3c-2.9 3.7-8.5 3.7-11.3 0L405.6 143.7c-3.7-4.7-0.4-11.7 5.7-11.7H474v-156c0-4.4 3.6-8 8-8h60c4.4 0 8 3.6 8 8V132h62.8c6 0 9.4 7 5.7 11.7L517.7 271.3z"  horiz-adv-x="1024" />

    
    <glyph glyph-name="totop" unicode="&#59392;" d="M885 116H165c-4.4 0-8-3.6-8-8v-60c0-4.4 3.6-8 8-8h720c4.4 0 8 3.6 8 8v60c0 4.4-3.6 8-8 8zM400 570.3h73.9V232c0-4.4 3.6-8 8-8h60c4.4 0 8 3.6 8 8V570.3H624c6.7 0 10.4 7.7 6.3 12.9L518.3 725c-3.2 4.1-9.4 4.1-12.6 0l-112-141.7c-4.1-5.3-0.4-13 6.3-13z"  horiz-adv-x="1024" />

    
    <glyph glyph-name="vertical-align-top" unicode="&#59393;" d="M859.9 728H164.1c-4.5 0-8.1-3.6-8.1-8v-60c0-4.4 3.6-8 8.1-8h695.8c4.5 0 8.1 3.6 8.1 8v60c0 4.4-3.6 8-8.1 8zM518.3 541c-3.2 4.1-9.4 4.1-12.6 0l-112-141.7c-4.1-5.2-0.4-12.9 6.3-12.9h73.9V48c0-4.4 3.6-8 8-8h60c4.4 0 8 3.6 8 8V386.3H624c6.7 0 10.4 7.7 6.3 12.9L518.3 541z"  horiz-adv-x="1024" />

    
    <glyph glyph-name="download" unicode="&#59394;" d="M505.7 235c3.2-4.1 9.4-4.1 12.6 0l112 141.7c4.1 5.2 0.4 12.9-6.3 12.9h-74.1V728c0 4.4-3.6 8-8 8h-60c-4.4 0-8-3.6-8-8v-338.3H400c-6.7 0-10.4-7.7-6.3-12.9l112-141.8zM878 270h-60c-4.4 0-8-3.6-8-8v-154H214V262c0 4.4-3.6 8-8 8h-60c-4.4 0-8-3.6-8-8v-198c0-17.7 14.3-32 32-32h684c17.7 0 32 14.3 32 32V262c0 4.4-3.6 8-8 8z"  horiz-adv-x="1024" />

    
    <glyph glyph-name="sort-descending" unicode="&#59395;" d="M839.6 462.2L749 745.5c-1.2 3.9-4.8 6.5-8.9 6.5h-77.4c-4.1 0-7.6-2.6-8.9-6.5l-91.3-283.3c-0.3-0.9-0.5-1.9-0.5-2.9 0-5.1 4.2-9.3 9.3-9.3h56.4c4.2 0 7.8 2.8 9 6.8l17.5 61.6h89l17.3-61.5c1.1-4 4.8-6.8 9-6.8h61.2c1 0 1.9 0.1 2.8 0.4 2.4 0.8 4.3 2.4 5.5 4.6 1.1 2.2 1.3 4.7 0.6 7.1zM663.3 570.5l32.8 116.9h6.3l32.1-116.9h-71.2zM806.8 77.6H677.2v0.4l132.6 188.9c1.1 1.6 1.7 3.4 1.7 5.4v36.4c0 5.1-4.2 9.3-9.3 9.3h-204c-5.1 0-9.3-4.2-9.3-9.3v-43c0-5.1 4.2-9.3 9.3-9.3h122.6v-0.4L587.7 67.1c-1.1-1.6-1.7-3.4-1.7-5.4v-36.4c0-5.1 4.2-9.3 9.3-9.3h211.4c5.1 0 9.3 4.2 9.3 9.3v43c0.1 5.1-4.1 9.3-9.2 9.3zM310.3 728.9c-3.2 4.1-9.4 4.1-12.6 0L185.7 587c-4.2-5.3-0.4-13 6.3-13h76v-530c0-4.4 3.6-8 8-8h56c4.4 0 8 3.6 8 8V574h76c6.7 0 10.5 7.8 6.3 13l-112 141.9z"  horiz-adv-x="1024" />

    
    <glyph glyph-name="sort-ascending" unicode="&#59396;" d="M839.6 462.2L749 745.5c-1.2 3.9-4.8 6.5-8.9 6.5h-77.4c-4.1 0-7.6-2.6-8.9-6.5l-91.3-283.3c-0.3-0.9-0.5-1.9-0.5-2.9 0-5.1 4.2-9.3 9.3-9.3h56.4c4.2 0 7.8 2.8 9 6.8l17.5 61.6h89l17.3-61.5c1.1-4 4.8-6.8 9-6.8h61.2c1 0 1.9 0.1 2.8 0.4 2.4 0.8 4.3 2.4 5.5 4.6 1.1 2.2 1.3 4.7 0.6 7.1zM663.3 570.5l32.8 116.9h6.3l32.1-116.9h-71.2zM806.8 77.6H677.2v0.4l132.6 188.9c1.1 1.6 1.7 3.4 1.7 5.4v36.4c0 5.1-4.2 9.3-9.3 9.3h-204c-5.1 0-9.3-4.2-9.3-9.3v-43c0-5.1 4.2-9.3 9.3-9.3h122.6v-0.4L587.7 67.1c-1.1-1.6-1.7-3.4-1.7-5.4v-36.4c0-5.1 4.2-9.3 9.3-9.3h211.4c5.1 0 9.3 4.2 9.3 9.3v43c0.1 5.1-4.1 9.3-9.2 9.3zM416 194h-76V724c0 4.4-3.6 8-8 8h-56c-4.4 0-8-3.6-8-8v-530h-76c-6.7 0-10.5-7.8-6.3-13l112-141.9c3.2-4.1 9.4-4.1 12.6 0l112 141.9c4.1 5.2 0.4 13-6.3 13z"  horiz-adv-x="1024" />

    
    <glyph glyph-name="swap" unicode="&#59397;" d="M847.9 304H152c-4.4 0-8-3.6-8-8v-60c0-4.4 3.6-8 8-8h605.2L612.9 45c-4.1-5.2-0.4-13 6.3-13h72.5c4.9 0 9.5 2.2 12.6 6.1l168.8 214.1c16.5 21 1.6 51.8-25.2 51.8zM872 540H266.8l144.3 183c4.1 5.2 0.4 13-6.3 13h-72.5c-4.9 0-9.5-2.2-12.6-6.1L150.9 515.8c-16.5-21-1.6-51.8 25.1-51.8h696c4.4 0 8 3.6 8 8v60c0 4.4-3.6 8-8 8z"  horiz-adv-x="1024" />

    
    <glyph glyph-name="stock" unicode="&#59398;" d="M904 149H120c-4.4 0-8-3.6-8-8v-56c0-4.4 3.6-8 8-8h784c4.4 0 8 3.6 8 8v56c0 4.4-3.6 8-8 8zM165.7 274.2l39.7-39.5c3.1-3.1 8.2-3.1 11.3 0l234.7 233.9 97.6-97.3c12.5-12.4 32.7-12.4 45.2 0l264.2 263.2c3.1 3.1 3.1 8.2 0 11.3l-39.7 39.6c-3.1 3.1-8.2 3.1-11.3 0l-235.7-235-97.7 97.3c-12.5 12.4-32.7 12.4-45.2 0L165.7 285.5c-3.1-3.1-3.2-8.2 0-11.3z"  horiz-adv-x="1024" />

    
    <glyph glyph-name="rise" unicode="&#59399;" d="M917 684.9l-199.2-24c-6.6-0.8-9.4-8.9-4.7-13.6l59.3-59.3-226-226-101.8 101.7c-6.3 6.3-16.4 6.2-22.6 0L100.3 141.9c-3.1-3.1-3.1-8.2 0-11.3l45-45.2c3.1-3.1 8.2-3.1 11.3 0L433.3 362 535 260.3c6.3-6.2 16.4-6.2 22.6 0L829 531.5l59.3-59.3c4.7-4.7 12.8-1.9 13.6 4.7l24 199.2c0.7 5.1-3.7 9.5-8.9 8.8z"  horiz-adv-x="1024" />

    
    <glyph glyph-name="indent" unicode="&#59400;" d="M408 454h480c4.4 0 8 3.6 8 8v56c0 4.4-3.6 8-8 8H408c-4.4 0-8-3.6-8-8v-56c0-4.4 3.6-8 8-8zM400 250c0-4.4 3.6-8 8-8h480c4.4 0 8 3.6 8 8v56c0 4.4-3.6 8-8 8H408c-4.4 0-8-3.6-8-8v-56zM904 736H120c-4.4 0-8-3.6-8-8v-56c0-4.4 3.6-8 8-8h784c4.4 0 8 3.6 8 8v56c0 4.4-3.6 8-8 8zM904 104H120c-4.4 0-8-3.6-8-8v-56c0-4.4 3.6-8 8-8h784c4.4 0 8 3.6 8 8v56c0 4.4-3.6 8-8 8zM142.4 253.9L298.7 377c4.5 3.5 4.5 10.3 0 13.9L142.4 514.1c-5.8 4.6-14.4 0.5-14.4-6.9v-246.3c0-7.4 8.5-11.6 14.4-7z"  horiz-adv-x="1024" />

    
    <glyph glyph-name="outdent" unicode="&#59401;" d="M408 454h480c4.4 0 8 3.6 8 8v56c0 4.4-3.6 8-8 8H408c-4.4 0-8-3.6-8-8v-56c0-4.4 3.6-8 8-8zM400 250c0-4.4 3.6-8 8-8h480c4.4 0 8 3.6 8 8v56c0 4.4-3.6 8-8 8H408c-4.4 0-8-3.6-8-8v-56zM904 736H120c-4.4 0-8-3.6-8-8v-56c0-4.4 3.6-8 8-8h784c4.4 0 8 3.6 8 8v56c0 4.4-3.6 8-8 8zM904 104H120c-4.4 0-8-3.6-8-8v-56c0-4.4 3.6-8 8-8h784c4.4 0 8 3.6 8 8v56c0 4.4-3.6 8-8 8zM115.4 377.1L271.7 254c5.8-4.6 14.4-0.5 14.4 6.9V507.1c0 7.4-8.5 11.5-14.4 6.9L115.4 390.9c-4.5-3.5-4.5-10.3 0-13.8z"  horiz-adv-x="1024" />

    
    <glyph glyph-name="menu" unicode="&#59402;" d="M904 736H120c-4.4 0-8-3.6-8-8v-64c0-4.4 3.6-8 8-8h784c4.4 0 8 3.6 8 8v64c0 4.4-3.6 8-8 8zM904 112H120c-4.4 0-8-3.6-8-8v-64c0-4.4 3.6-8 8-8h784c4.4 0 8 3.6 8 8v64c0 4.4-3.6 8-8 8zM904 424H120c-4.4 0-8-3.6-8-8v-64c0-4.4 3.6-8 8-8h784c4.4 0 8 3.6 8 8v64c0 4.4-3.6 8-8 8z"  horiz-adv-x="1024" />

    
    <glyph glyph-name="unorderedlist" unicode="&#59403;" d="M912 704H328c-4.4 0-8-3.6-8-8v-56c0-4.4 3.6-8 8-8h584c4.4 0 8 3.6 8 8v56c0 4.4-3.6 8-8 8zM912 420H328c-4.4 0-8-3.6-8-8v-56c0-4.4 3.6-8 8-8h584c4.4 0 8 3.6 8 8v56c0 4.4-3.6 8-8 8zM912 136H328c-4.4 0-8-3.6-8-8v-56c0-4.4 3.6-8 8-8h584c4.4 0 8 3.6 8 8v56c0 4.4-3.6 8-8 8zM160 668m-56 0a56 56 0 1 1 112 0 56 56 0 1 1-112 0ZM160 384m-56 0a56 56 0 1 1 112 0 56 56 0 1 1-112 0ZM160 100m-56 0a56 56 0 1 1 112 0 56 56 0 1 1-112 0Z"  horiz-adv-x="1024" />

    
    <glyph glyph-name="orderedlist" unicode="&#59404;" d="M920 136H336c-4.4 0-8-3.6-8-8v-56c0-4.4 3.6-8 8-8h584c4.4 0 8 3.6 8 8v56c0 4.4-3.6 8-8 8zM920 704H336c-4.4 0-8-3.6-8-8v-56c0-4.4 3.6-8 8-8h584c4.4 0 8 3.6 8 8v56c0 4.4-3.6 8-8 8zM920 420H336c-4.4 0-8-3.6-8-8v-56c0-4.4 3.6-8 8-8h584c4.4 0 8 3.6 8 8v56c0 4.4-3.6 8-8 8zM216 184H100c-2.2 0-4-1.8-4-4v-34c0-2.2 1.8-4 4-4h72.4v-20.5h-35.7c-2.2 0-4-1.8-4-4v-34c0-2.2 1.8-4 4-4h35.7V58H100c-2.2 0-4-1.8-4-4v-34c0-2.2 1.8-4 4-4h116c2.2 0 4 1.8 4 4V180c0 2.2-1.8 4-4 4zM100 708h38v-120c0-2.2 1.8-4 4-4h40c2.2 0 4 1.8 4 4V744c0 4.4-3.6 8-8 8h-78c-2.2 0-4-1.8-4-4v-36c0-2.2 1.8-4 4-4zM216 468H100c-2.2 0-4-1.8-4-4v-36c0-2.2 1.8-4 4-4h68.4l-70.3-77.7c-1.3-1.5-2.1-3.4-2.1-5.4V304c0-2.2 1.8-4 4-4h116c2.2 0 4 1.8 4 4v36c0 2.2-1.8 4-4 4h-68.4l70.3 77.7c1.3 1.5 2.1 3.4 2.1 5.4V464c0 2.2-1.8 4-4 4z"  horiz-adv-x="1024" />

    
    <glyph glyph-name="align-right" unicode="&#59405;" d="M904 738H408c-4.4 0-8-3.6-8-8v-56c0-4.4 3.6-8 8-8h496c4.4 0 8 3.6 8 8v56c0 4.4-3.6 8-8 8zM904 314H408c-4.4 0-8-3.6-8-8v-56c0-4.4 3.6-8 8-8h496c4.4 0 8 3.6 8 8v56c0 4.4-3.6 8-8 8zM904 102H120c-4.4 0-8-3.6-8-8v-56c0-4.4 3.6-8 8-8h784c4.4 0 8 3.6 8 8v56c0 4.4-3.6 8-8 8zM904 526H120c-4.4 0-8-3.6-8-8v-56c0-4.4 3.6-8 8-8h784c4.4 0 8 3.6 8 8v56c0 4.4-3.6 8-8 8z"  horiz-adv-x="1024" />

    
    <glyph glyph-name="align-center" unicode="&#59406;" d="M264 666h496c4.4 0 8 3.6 8 8v56c0 4.4-3.6 8-8 8H264c-4.4 0-8-3.6-8-8v-56c0-4.4 3.6-8 8-8zM760 242c4.4 0 8 3.6 8 8v56c0 4.4-3.6 8-8 8H264c-4.4 0-8-3.6-8-8v-56c0-4.4 3.6-8 8-8h496zM904 102H120c-4.4 0-8-3.6-8-8v-56c0-4.4 3.6-8 8-8h784c4.4 0 8 3.6 8 8v56c0 4.4-3.6 8-8 8zM904 526H120c-4.4 0-8-3.6-8-8v-56c0-4.4 3.6-8 8-8h784c4.4 0 8 3.6 8 8v56c0 4.4-3.6 8-8 8z"  horiz-adv-x="1024" />

    
    <glyph glyph-name="align-left" unicode="&#59407;" d="M120 666h496c4.4 0 8 3.6 8 8v56c0 4.4-3.6 8-8 8H120c-4.4 0-8-3.6-8-8v-56c0-4.4 3.6-8 8-8zM120 242h496c4.4 0 8 3.6 8 8v56c0 4.4-3.6 8-8 8H120c-4.4 0-8-3.6-8-8v-56c0-4.4 3.6-8 8-8zM904 102H120c-4.4 0-8-3.6-8-8v-56c0-4.4 3.6-8 8-8h784c4.4 0 8 3.6 8 8v56c0 4.4-3.6 8-8 8zM904 526H120c-4.4 0-8-3.6-8-8v-56c0-4.4 3.6-8 8-8h784c4.4 0 8 3.6 8 8v56c0 4.4-3.6 8-8 8z"  horiz-adv-x="1024" />

    
    <glyph glyph-name="pic-center" unicode="&#59408;" d="M952 104H72c-4.4 0-8-3.6-8-8v-56c0-4.4 3.6-8 8-8h880c4.4 0 8 3.6 8 8v56c0 4.4-3.6 8-8 8zM952 736H72c-4.4 0-8-3.6-8-8v-56c0-4.4 3.6-8 8-8h880c4.4 0 8 3.6 8 8v56c0 4.4-3.6 8-8 8zM848 236c8.8 0 16 7.2 16 16V516c0 8.8-7.2 16-16 16H176c-8.8 0-16-7.2-16-16v-264c0-8.8 7.2-16 16-16h672zM232 460h560v-152H232V460z"  horiz-adv-x="1024" />

    
    <glyph glyph-name="pic-right" unicode="&#59409;" d="M952 104H72c-4.4 0-8-3.6-8-8v-56c0-4.4 3.6-8 8-8h880c4.4 0 8 3.6 8 8v56c0 4.4-3.6 8-8 8zM952 736H72c-4.4 0-8-3.6-8-8v-56c0-4.4 3.6-8 8-8h880c4.4 0 8 3.6 8 8v56c0 4.4-3.6 8-8 8zM928 236c8.8 0 16 7.2 16 16V516c0 8.8-7.2 16-16 16H416c-8.8 0-16-7.2-16-16v-264c0-8.8 7.2-16 16-16h512zM472 460h400v-152H472V460zM80 250c0-4.4 3.6-8 8-8h224c4.4 0 8 3.6 8 8v56c0 4.4-3.6 8-8 8H88c-4.4 0-8-3.6-8-8v-56zM88 454h224c4.4 0 8 3.6 8 8v56c0 4.4-3.6 8-8 8H88c-4.4 0-8-3.6-8-8v-56c0-4.4 3.6-8 8-8z"  horiz-adv-x="1024" />

    
    <glyph glyph-name="pic-left" unicode="&#59410;" d="M952 104H72c-4.4 0-8-3.6-8-8v-56c0-4.4 3.6-8 8-8h880c4.4 0 8 3.6 8 8v56c0 4.4-3.6 8-8 8zM952 736H72c-4.4 0-8-3.6-8-8v-56c0-4.4 3.6-8 8-8h880c4.4 0 8 3.6 8 8v56c0 4.4-3.6 8-8 8zM608 236c8.8 0 16 7.2 16 16V516c0 8.8-7.2 16-16 16H96c-8.8 0-16-7.2-16-16v-264c0-8.8 7.2-16 16-16h512zM152 460h400v-152H152V460zM704 250c0-4.4 3.6-8 8-8h224c4.4 0 8 3.6 8 8v56c0 4.4-3.6 8-8 8H712c-4.4 0-8-3.6-8-8v-56zM712 454h224c4.4 0 8 3.6 8 8v56c0 4.4-3.6 8-8 8H712c-4.4 0-8-3.6-8-8v-56c0-4.4 3.6-8 8-8z"  horiz-adv-x="1024" />

    
    <glyph glyph-name="font-size" unicode="&#59411;" d="M920 480H616c-4.4 0-8-3.6-8-8v-112c0-4.4 3.6-8 8-8h48c4.4 0 8 3.6 8 8v56h60v-320h-46c-4.4 0-8-3.6-8-8v-48c0-4.4 3.6-8 8-8h164c4.4 0 8 3.6 8 8v48c0 4.4-3.6 8-8 8h-46V416h60v-56c0-4.4 3.6-8 8-8h48c4.4 0 8 3.6 8 8V472c0 4.4-3.6 8-8 8zM656 600V728c0 4.4-3.6 8-8 8H104c-4.4 0-8-3.6-8-8v-128c0-4.4 3.6-8 8-8h56c4.4 0 8 3.6 8 8v64h168v-560h-92c-4.4 0-8-3.6-8-8v-56c0-4.4 3.6-8 8-8h264c4.4 0 8 3.6 8 8v56c0 4.4-3.6 8-8 8h-92V664h168v-64c0-4.4 3.6-8 8-8h56c4.4 0 8 3.6 8 8z"  horiz-adv-x="1024" />

    
    <glyph glyph-name="infomation" unicode="&#59412;" d="M512 672m-64 0a64 64 0 1 1 128 0 64 64 0 1 1-128 0ZM544 504h-64c-4.4 0-8-3.6-8-8v-464c0-4.4 3.6-8 8-8h64c4.4 0 8 3.6 8 8V496c0 4.4-3.6 8-8 8z"  horiz-adv-x="1024" />

    
    <glyph glyph-name="line-height" unicode="&#59413;" d="M648 736H104c-4.4 0-8-3.6-8-8v-128c0-4.4 3.6-8 8-8h56c4.4 0 8 3.6 8 8v64h168v-560h-92c-4.4 0-8-3.6-8-8v-56c0-4.4 3.6-8 8-8h264c4.4 0 8 3.6 8 8v56c0 4.4-3.6 8-8 8h-92V664h168v-64c0-4.4 3.6-8 8-8h56c4.4 0 8 3.6 8 8V728c0 4.4-3.6 8-8 8zM920.8 190H856V578h64.8c6 0 9.4 7 5.7 11.7L825.7 717.3c-2.9 3.7-8.5 3.7-11.3 0L713.6 589.7c-3.7-4.7-0.4-11.7 5.7-11.7H784v-388h-64.8c-6 0-9.4-7-5.7-11.7l100.8-127.5c2.9-3.7 8.5-3.7 11.3 0l100.8 127.5c3.8 4.7 0.4 11.7-5.6 11.7z"  horiz-adv-x="1024" />

    
    <glyph glyph-name="strikethrough" unicode="&#59414;" d="M952 422H569.9c-10 2-20.5 4-31.6 6-15.9 2.9-22.2 4.1-30.8 5.8-51.3 10-82.2 20-106.8 34.2-35.1 20.5-52.2 48.3-52.2 85.1 0 37 15.2 67.7 44 89 28.4 21 68.8 32.1 116.8 32.1 54.8 0 97.1-14.4 125.8-42.8 14.6-14.4 25.3-32.1 31.8-52.6 1.3-4.1 2.8-10 4.3-17.8 0.9-4.8 5.2-8.2 9.9-8.2h72.8c5.6 0 10.1 4.6 10.1 10.1v1c-0.7 6.8-1.3 12.1-2 16-7.3 43.5-28 81.7-59.7 110.3-44.4 40.5-109.7 61.8-188.7 61.8-72.3 0-137.4-18.1-183.3-50.9-25.6-18.4-45.4-41.2-58.6-67.7-13.5-27.1-20.3-58.4-20.3-92.9 0-29.5 5.7-54.5 17.3-76.5 8.3-15.7 19.6-29.5 34.1-42H72c-4.4 0-8-3.6-8-8v-60c0-4.4 3.6-8 8-8h433.2c2.1-0.4 3.9-0.8 5.9-1.2 30.9-6.2 49.5-10.4 66.6-15.2 23-6.5 40.6-13.3 55.2-21.5 35.8-20.2 53.3-49.2 53.3-89 0-35.3-15.5-66.8-43.6-88.8-30.5-23.9-75.6-36.4-130.5-36.4-43.7 0-80.7 8.5-110.2 25-29.1 16.3-49.1 39.8-59.7 69.5-0.8 2.2-1.7 5.2-2.7 9-1.2 4.4-5.3 7.5-9.7 7.5h-79.7c-5.6 0-10.1-4.6-10.1-10.1v-1c0.2-2.3 0.4-4.2 0.6-5.7 6.5-48.8 30.3-88.8 70.7-118.8 47.1-34.8 113.4-53.2 191.8-53.2 84.2 0 154.8 19.8 204.2 57.3 25 18.9 44.2 42.2 57.1 69 13 27.1 19.7 57.9 19.7 91.5 0 31.8-5.8 58.4-17.8 81.4-5.8 11.2-13.1 21.5-21.8 30.8H952c4.4 0 8 3.6 8 8v60c0 4.3-3.6 7.9-8 7.9z"  horiz-adv-x="1024" />

    
    <glyph glyph-name="underline" unicode="&#59415;" d="M824 92H200c-4.4 0-8-3.4-8-7.6v-60.8c0-4.2 3.6-7.6 8-7.6h624c4.4 0 8 3.4 8 7.6v60.8c0 4.2-3.6 7.6-8 7.6zM512 168c69.4 0 134.6 27.1 183.8 76.2C745 293.3 772 358.6 772 428V740c0 6.6-5.4 12-12 12h-60c-6.6 0-12-5.4-12-12v-312c0-97-79-176-176-176s-176 79-176 176V740c0 6.6-5.4 12-12 12h-60c-6.6 0-12-5.4-12-12v-312c0-69.4 27.1-134.6 76.2-183.8C377.3 195 442.6 168 512 168z"  horiz-adv-x="1024" />

    
    <glyph glyph-name="number" unicode="&#59416;" d="M872 502c4.4 0 8 3.6 8 8v60c0 4.4-3.6 8-8 8H708V744c0 4.4-3.6 8-8 8h-64c-4.4 0-8-3.6-8-8v-166H400V744c0 4.4-3.6 8-8 8h-64c-4.4 0-8-3.6-8-8v-166H152c-4.4 0-8-3.6-8-8v-60c0-4.4 3.6-8 8-8h168v-236H152c-4.4 0-8-3.6-8-8v-60c0-4.4 3.6-8 8-8h168v-166c0-4.4 3.6-8 8-8h64c4.4 0 8 3.6 8 8V190h228v-166c0-4.4 3.6-8 8-8h64c4.4 0 8 3.6 8 8V190h164c4.4 0 8 3.6 8 8v60c0 4.4-3.6 8-8 8H708V502h164zM628 266H400V502h228v-236z"  horiz-adv-x="1024" />

    
    <glyph glyph-name="italic" unicode="&#59417;" d="M798 736H366c-4.4 0-8-3.6-8-8v-64c0-4.4 3.6-8 8-8h181.2l-156-544H229c-4.4 0-8-3.6-8-8v-64c0-4.4 3.6-8 8-8h432c4.4 0 8 3.6 8 8v64c0 4.4-3.6 8-8 8H474.4l156 544H798c4.4 0 8 3.6 8 8v64c0 4.4-3.6 8-8 8z"  horiz-adv-x="1024" />

    
    <glyph glyph-name="code" unicode="&#59418;" d="M438.4 46.9l222.7 646.7c0.2 0.5 0.3 1.1 0.4 1.6L438.4 46.9zM661.2 727.3h-67.5c-3.4 0-6.5-2.2-7.6-5.4L354.7 50c-0.3-0.8-0.4-1.7-0.4-2.6 0-4.4 3.6-8 8-8h67.8c3.4 0 6.5 2.2 7.6 5.4l0.7 2.1 223.1 648.3 7.4 21.4c0.3 0.8 0.4 1.7 0.4 2.6-0.1 4.5-3.6 8.1-8.1 8.1zM954.6 393.9c-0.8 1-1.7 1.9-2.7 2.7l-219 171.3c-3.5 2.7-8.5 2.1-11.2-1.4-1.1-1.4-1.7-3.1-1.7-4.9v-81.3c0-2.5 1.1-4.8 3.1-6.3l115-90-115-90c-1.9-1.5-3.1-3.8-3.1-6.3v-81.3c0-4.4 3.6-8 8-8 1.8 0 3.5 0.6 4.9 1.7l219 171.3c6.9 5.4 8.2 15.5 2.7 22.5zM291.1 567.9l-219-171.3c-1-0.8-1.9-1.7-2.7-2.7-5.4-7-4.2-17 2.7-22.5l219-171.3c1.4-1.1 3.1-1.7 4.9-1.7 4.4 0 8 3.6 8 8v81.3c0 2.5-1.1 4.8-3.1 6.3l-115 90 115 90c1.9 1.5 3.1 3.8 3.1 6.3v81.3c0 1.8-0.6 3.5-1.7 4.9-2.7 3.5-7.7 4.1-11.2 1.4z"  horiz-adv-x="1024" />

    
    <glyph glyph-name="column-width" unicode="&#59419;" d="M180 720h-60c-4.4 0-8-3.6-8-8v-656c0-4.4 3.6-8 8-8h60c4.4 0 8 3.6 8 8V712c0 4.4-3.6 8-8 8zM904 720h-60c-4.4 0-8-3.6-8-8v-656c0-4.4 3.6-8 8-8h60c4.4 0 8 3.6 8 8V712c0 4.4-3.6 8-8 8zM785.3 391.7L657.7 492.4c-4.7 3.7-11.7 0.4-11.7-5.7V420H378v62.8c0 6-7 9.4-11.7 5.7L238.7 387.7c-3.7-2.9-3.7-8.5 0-11.3l127.5-100.8c4.7-3.7 11.7-0.4 11.7 5.7V348h268v-62.8c0-6 7-9.4 11.7-5.7l127.5 100.8c3.8 2.9 3.8 8.5 0.2 11.4z"  horiz-adv-x="1024" />

    
    <glyph glyph-name="check" unicode="&#59420;" d="M912 706h-69.9c-9.8 0-19.1-4.5-25.1-12.2L404.7 171.5 207 422c-6.1 7.7-15.3 12.2-25.1 12.2H112c-6.7 0-10.4-7.7-6.3-12.9l273.9-347c12.8-16.2 37.4-16.2 50.3 0l488.4 618.9c4.1 5.1 0.4 12.8-6.3 12.8z"  horiz-adv-x="1024" />

    
    <glyph glyph-name="ellipsis" unicode="&#59421;" d="M232 385m-56 0a56 56 0 1 1 112 0 56 56 0 1 1-112 0ZM512 385m-56 0a56 56 0 1 1 112 0 56 56 0 1 1-112 0ZM792 385m-56 0a56 56 0 1 1 112 0 56 56 0 1 1-112 0Z"  horiz-adv-x="1024" />

    
    <glyph glyph-name="dash" unicode="&#59422;" d="M112 420h160v-72H112zM432 420h160v-72H432zM752 420h160v-72H752z"  horiz-adv-x="1024" />

    
    <glyph glyph-name="close" unicode="&#59423;" d="M563.8 384l262.5 312.9c4.4 5.2 0.7 13.1-6.1 13.1h-79.8c-4.7 0-9.2-2.1-12.3-5.7L511.6 446.2 295.1 704.3c-3 3.6-7.5 5.7-12.3 5.7H203c-6.8 0-10.5-7.9-6.1-13.1L459.4 384 196.9 71.1c-4.4-5.2-0.7-13.1 6.1-13.1h79.8c4.7 0 9.2 2.1 12.3 5.7l216.5 258.1 216.5-258.1c3-3.6 7.5-5.7 12.3-5.7h79.8c6.8 0 10.5 7.9 6.1 13.1L563.8 384z"  horiz-adv-x="1024" />

    
    <glyph glyph-name="enter" unicode="&#59424;" d="M864 726h-60c-4.4 0-8-3.6-8-8v-518H310v73c0 6.7-7.8 10.5-13 6.3l-141.9-112c-4.1-3.2-4.1-9.4 0-12.6l141.9-112c5.3-4.2 13-0.4 13 6.3v75h498c35.3 0 64 28.7 64 64V718c0 4.4-3.6 8-8 8z"  horiz-adv-x="1024" />

    
    <glyph glyph-name="line" unicode="&#59425;" d="M904 420H120c-4.4 0-8-3.6-8-8v-56c0-4.4 3.6-8 8-8h784c4.4 0 8 3.6 8 8v56c0 4.4-3.6 8-8 8z"  horiz-adv-x="1024" />

    
    <glyph glyph-name="minus" unicode="&#59426;" d="M872 422H152c-4.4 0-8-3.6-8-8v-60c0-4.4 3.6-8 8-8h720c4.4 0 8 3.6 8 8v60c0 4.4-3.6 8-8 8z"  horiz-adv-x="1024" />

    
    <glyph glyph-name="question" unicode="&#59427;" d="M764 615.1c-14 30.6-33.9 58.1-59.3 81.6C653.1 744.6 584.6 771 512 771s-141.1-26.4-192.7-74.2c-25.4-23.6-45.3-51-59.3-81.7-14.6-32-22-65.9-22-100.9v-27c0-6.2 5-11.2 11.2-11.2h54c6.2 0 11.2 5 11.2 11.2v27c0 99.5 88.6 180.4 197.6 180.4s197.6-80.9 197.6-180.4c0-40.8-14.5-79.2-42-111.2-27.2-31.7-65.6-54.4-108.1-64-24.3-5.5-46.2-19.2-61.7-38.8-15.4-19.4-23.9-43.8-23.9-68.6v-31.4c0-6.2 5-11.2 11.2-11.2h54c6.2 0 11.2 5 11.2 11.2v31.4c0 15.7 10.9 29.5 26 32.9 58.4 13.2 111.4 44.7 149.3 88.7 19.1 22.3 34 47.1 44.3 74 10.7 27.9 16.1 57.2 16.1 87 0 35-7.4 69-22 100.9zM512 109c-30.9 0-56-25.1-56-56s25.1-56 56-56 56 25.1 56 56-25.1 56-56 56z"  horiz-adv-x="1024" />

    
    <glyph glyph-name="plus" unicode="&#59428;" d="M848 422H550V744h-76v-322H176c-4.4 0-8-3.6-8-8v-60c0-4.4 3.6-8 8-8h298v-322h76V346h298c4.4 0 8 3.6 8 8v60c0 4.4-3.6 8-8 8z"  horiz-adv-x="1024" />

    
    <glyph glyph-name="rollback" unicode="&#59429;" d="M793 654H366v74c0 6.7-7.7 10.4-12.9 6.3l-142-112c-4.1-3.2-4.1-9.4 0-12.6l142-112c5.2-4.1 12.9-0.4 12.9 6.3v74h415v-470H175c-4.4 0-8-3.6-8-8v-60c0-4.4 3.6-8 8-8h618c35.3 0 64 28.7 64 64V590c0 35.3-28.7 64-64 64z"  horiz-adv-x="1024" />

    
    <glyph glyph-name="small-dash" unicode="&#59430;" d="M112 420h72v-72h-72zM294 420h72v-72h-72zM658 420h72v-72h-72zM840 420h72v-72h-72zM476 420h72v-72h-72z"  horiz-adv-x="1024" />

    
    <glyph glyph-name="stop" unicode="&#59458;" d="M512 832C264.6 832 64 631.4 64 384s200.6-448 448-448 448 200.6 448 448S759.4 832 512 832z m0-820c-205.4 0-372 166.6-372 372 0 89 31.3 170.8 83.5 234.8l523.3-523.3C682.8 43.3 601 12 512 12z m288.5 137.2L277.2 672.5C341.2 724.7 423 756 512 756c205.4 0 372-166.6 372-372 0-89-31.3-170.8-83.5-234.8z"  horiz-adv-x="1024" />

    
    <glyph glyph-name="fire" unicode="&#59459;" d="M834.1 426.8c-19.5 43.8-47.4 82.6-82.9 115.2l-29.1 26.7c-4.3 3.8-11.1 2.1-13-3.3l-13-37.3c-8.1-23.4-23-47.3-44.1-70.8-1.4-1.5-3-1.9-4.1-2-1.1-0.1-2.8 0.1-4.3 1.5-1.4 1.2-2.1 3-2 4.8 3.7 60.2-14.3 128.1-53.7 202C555.3 725 510 772.9 453.4 806.3l-41.3 24.3c-5.4 3.2-12.3-1-12-7.3l2.2-48c1.5-32.8-2.3-61.8-11.3-85.9-11-29.5-26.8-56.9-47-81.5-14.2-17.2-30.1-32.7-47.5-46.1-42.1-32.3-76.8-74.4-100.3-121.5C172.5 392.7 160 339.4 160 286c0-47.2 9.3-92.9 27.7-136 17.8-41.5 43.2-78.9 75.5-110.9 32.4-32 70-57.2 111.9-74.7C418.5-53.8 464.5-63 512-63s93.5 9.2 136.9 27.3c41.9 17.5 79.6 42.6 111.9 74.7 32.4 32 57.8 69.4 75.5 110.9 18.4 43.1 27.7 88.8 27.7 136 0 48.8-10 96.2-29.9 140.9zM713 87.5c-53.7-53.2-125-82.4-201-82.4s-147.3 29.2-201 82.4c-53.5 53.1-83 123.5-83 198.4 0 43.5 9.8 85.2 29.1 124 18.8 37.9 46.8 71.8 80.8 97.9 21.5 16.4 41.2 35.5 58.6 56.8 25 30.5 44.6 64.5 58.2 101 5.4 14.5 9.5 30 12.1 46.5 24.1-22.2 44.3-49 61.2-80.4 33.4-62.6 48.8-118.3 45.8-165.7-1.4-22.8 7.5-44.5 24.4-59.8 14.7-13.2 33.7-19.9 53.4-18.8 19.7 1 37.8 9.7 51 24.4 13.3 14.9 24.8 30.1 34.4 45.6 14-17.9 25.7-37.4 35-58.4 15.9-35.8 24-73.9 24-113.1 0-74.9-29.5-145.4-83-198.4z"  horiz-adv-x="1024" />

    
    <glyph glyph-name="thunderbolt" unicode="&#59460;" d="M848 536.7H627.7L825.8 787c4.1 5.3 0.4 13-6.3 13H436c-2.8 0-5.5-1.5-6.9-4L170 348.5c-3.1-5.3 0.7-12 6.9-12h174.4l-89.4-357.6c-1.9-7.8 7.5-13.3 13.3-7.7L853.5 523c5.2 4.9 1.7 13.7-5.5 13.7zM378.2 163.5l60.3 241H281.1l189.6 327.4h224.6L487 468.6h211L378.2 163.5z"  horiz-adv-x="1024" />

    
    <glyph glyph-name="check-circle-fill" unicode="&#59461;" d="M512 832C264.6 832 64 631.4 64 384s200.6-448 448-448 448 200.6 448 448S759.4 832 512 832z m193.5-301.7l-210.6-292c-12.7-17.7-39-17.7-51.7 0L318.5 411.1c-3.8 5.3 0 12.7 6.5 12.7h46.9c10.2 0 19.9-4.9 25.9-13.3l71.2-98.8 157.2 218c6 8.3 15.6 13.3 25.9 13.3H699c6.5 0 10.3-7.4 6.5-12.7z"  horiz-adv-x="1024" />

    
    <glyph glyph-name="left-circle-fill" unicode="&#59462;" d="M512 832C264.6 832 64 631.4 64 384s200.6-448 448-448 448 200.6 448 448S759.4 832 512 832z m104-316.9c0-10.2-4.9-19.9-13.2-25.9L457.4 384l145.4-105.2c8.3-6 13.2-15.6 13.2-25.9V206c0-6.5-7.4-10.3-12.7-6.5l-246 178c-4.4 3.2-4.4 9.7 0 12.9l246 178c5.3 3.8 12.7 0.1 12.7-6.5v-46.8z"  horiz-adv-x="1024" />

    
    <glyph glyph-name="down-circle-fill" unicode="&#59463;" d="M512 832C264.6 832 64 631.4 64 384s200.6-448 448-448 448 200.6 448 448S759.4 832 512 832z m184.5-353.7l-178-246c-3.2-4.4-9.7-4.4-12.9 0l-178 246c-3.8 5.3 0 12.7 6.5 12.7H381c10.2 0 19.9-4.9 25.9-13.2L512 332.4l105.2 145.4c6 8.3 15.6 13.2 25.9 13.2H690c6.5 0 10.3-7.4 6.5-12.7z"  horiz-adv-x="1024" />

    
    <glyph glyph-name="minus-circle-fill" unicode="&#59464;" d="M512 832C264.6 832 64 631.4 64 384s200.6-448 448-448 448 200.6 448 448S759.4 832 512 832z m192-472c0-4.4-3.6-8-8-8H328c-4.4 0-8 3.6-8 8v48c0 4.4 3.6 8 8 8h368c4.4 0 8-3.6 8-8v-48z"  horiz-adv-x="1024" />

    
    <glyph glyph-name="close-circle-fill" unicode="&#59465;" d="M512 832C264.6 832 64 631.4 64 384s200.6-448 448-448 448 200.6 448 448S759.4 832 512 832z m165.4-618.2l-66 0.3L512 332.6l-99.3-118.4-66.1-0.3c-4.4 0-8 3.5-8 8 0 1.9 0.7 3.7 1.9 5.2l130.1 155L340.5 537c-1.2 1.5-1.9 3.3-1.9 5.2 0 4.4 3.6 8 8 8l66.1-0.3L512 431.4l99.3 118.4 66 0.3c4.4 0 8-3.5 8-8 0-1.9-0.7-3.7-1.9-5.2L553.5 382l130-155c1.2-1.5 1.9-3.3 1.9-5.2 0-4.4-3.6-8-8-8z"  horiz-adv-x="1024" />

    
    <glyph glyph-name="info-circle-fill" unicode="&#59466;" d="M512 832C264.6 832 64 631.4 64 384s200.6-448 448-448 448 200.6 448 448S759.4 832 512 832z m32-664c0-4.4-3.6-8-8-8h-48c-4.4 0-8 3.6-8 8V440c0 4.4 3.6 8 8 8h48c4.4 0 8-3.6 8-8v-272z m-32 344c-26.5 0-48 21.5-48 48s21.5 48 48 48 48-21.5 48-48-21.5-48-48-48z"  horiz-adv-x="1024" />

    
    <glyph glyph-name="up-circle-fill" unicode="&#59467;" d="M512 832C264.6 832 64 631.4 64 384s200.6-448 448-448 448 200.6 448 448S759.4 832 512 832z m178-555h-46.9c-10.2 0-19.9 4.9-25.9 13.2L512 435.6 406.8 290.2c-6-8.3-15.6-13.2-25.9-13.2H334c-6.5 0-10.3 7.4-6.5 12.7l178 246c3.2 4.4 9.7 4.4 12.9 0l178-246c3.9-5.3 0.1-12.7-6.4-12.7z"  horiz-adv-x="1024" />

    
    <glyph glyph-name="right-circle-fill" unicode="&#59468;" d="M512 832C264.6 832 64 631.4 64 384s200.6-448 448-448 448 200.6 448 448S759.4 832 512 832z m154.7-454.5l-246-178c-5.3-3.8-12.7 0-12.7 6.5v46.9c0 10.2 4.9 19.9 13.2 25.9L566.6 384 421.2 489.2c-8.3 6-13.2 15.6-13.2 25.9V562c0 6.5 7.4 10.3 12.7 6.5l246-178c4.4-3.2 4.4-9.8 0-13z"  horiz-adv-x="1024" />

    
    <glyph glyph-name="plus-circle-fill" unicode="&#59469;" d="M512 832C264.6 832 64 631.4 64 384s200.6-448 448-448 448 200.6 448 448S759.4 832 512 832z m192-472c0-4.4-3.6-8-8-8H544v-152c0-4.4-3.6-8-8-8h-48c-4.4 0-8 3.6-8 8V352H328c-4.4 0-8 3.6-8 8v48c0 4.4 3.6 8 8 8h152V568c0 4.4 3.6 8 8 8h48c4.4 0 8-3.6 8-8v-152h152c4.4 0 8-3.6 8-8v-48z"  horiz-adv-x="1024" />

    
    <glyph glyph-name="question-circle-fill" unicode="&#59470;" d="M512 832C264.6 832 64 631.4 64 384s200.6-448 448-448 448 200.6 448 448S759.4 832 512 832z m0-708c-22.1 0-40 17.9-40 40s17.9 40 40 40 40-17.9 40-40-17.9-40-40-40z m62.9 219.5c-18.5-7.1-30.9-25.1-30.9-44.8V276c0-4.4-3.6-8-8-8h-48c-4.4 0-8 3.6-8 8v21.5c0 23.1 6.7 45.9 19.9 64.9 12.9 18.6 30.9 32.8 52.1 40.9 34 13.1 56 41.6 56 72.7 0 44.1-43.1 80-96 80s-96-35.9-96-80v-7.6c0-4.4-3.6-8-8-8h-48c-4.4 0-8 3.6-8 8V476c0 39.3 17.2 76 48.4 103.3C430.4 605.6 470 620 512 620s81.6-14.5 111.6-40.7C654.8 552 672 515.3 672 476c0-57.8-38.1-109.8-97.1-132.5z"  horiz-adv-x="1024" />

    
    <glyph glyph-name="frown-fill" unicode="&#59471;" d="M512 832C264.6 832 64 631.4 64 384s200.6-448 448-448 448 200.6 448 448S759.4 832 512 832zM288 475c0 26.5 21.5 48 48 48s48-21.5 48-48-21.5-48-48-48-48 21.5-48 48z m376-272h-48.1c-4.2 0-7.8 3.2-8.1 7.4C604 259.9 562.5 299 512 299s-92.1-39.1-95.8-88.6c-0.3-4.2-3.9-7.4-8.1-7.4H360c-4.6 0-8.2 3.8-8 8.4 4.4 84.3 74.5 151.6 160 151.6s155.6-67.3 160-151.6c0.2-4.6-3.4-8.4-8-8.4z m24 224c-26.5 0-48 21.5-48 48s21.5 48 48 48 48-21.5 48-48-21.5-48-48-48z"  horiz-adv-x="1024" />

    
    <glyph glyph-name="compass-fill" unicode="&#59472;" d="M512 832C264.6 832 64 631.4 64 384s200.6-448 448-448 448 200.6 448 448S759.4 832 512 832zM327.3 193.6c-2-0.9-4.4 0-5.3 2.1-0.4 1-0.4 2.2 0 3.2l98.7 225.5 132.1-132.1-225.5-98.7z m375.1 375.1l-98.7-225.5-132.1 132.1L697.1 574c2 0.9 4.4 0 5.3-2.1 0.4-1 0.4-2.1 0-3.2z"  horiz-adv-x="1024" />

    
    <glyph glyph-name="poweroff-circle-fill" unicode="&#59473;" d="M512 832C264.6 832 64 631.4 64 384s200.6-448 448-448 448 200.6 448 448S759.4 832 512 832z m-80-600c0-4.4-3.6-8-8-8h-48c-4.4 0-8 3.6-8 8V536c0 4.4 3.6 8 8 8h48c4.4 0 8-3.6 8-8v-304z m224 0c0-4.4-3.6-8-8-8h-48c-4.4 0-8 3.6-8 8V536c0 4.4 3.6 8 8 8h48c4.4 0 8-3.6 8-8v-304z"  horiz-adv-x="1024" />

    
    <glyph glyph-name="meh-fill" unicode="&#59474;" d="M512 832C264.6 832 64 631.4 64 384s200.6-448 448-448 448 200.6 448 448S759.4 832 512 832zM288 475c0 26.5 21.5 48 48 48s48-21.5 48-48-21.5-48-48-48-48 21.5-48 48z m384-200c0-4.4-3.6-8-8-8H360c-4.4 0-8 3.6-8 8v48c0 4.4 3.6 8 8 8h304c4.4 0 8-3.6 8-8v-48z m16 152c-26.5 0-48 21.5-48 48s21.5 48 48 48 48-21.5 48-48-21.5-48-48-48z"  horiz-adv-x="1024" />

    
    <glyph glyph-name="play-circle-fill" unicode="&#59475;" d="M512 832C264.6 832 64 631.4 64 384s200.6-448 448-448 448 200.6 448 448S759.4 832 512 832z m144.1-454.9L437.7 218.2c-1.4-1-3-1.5-4.7-1.5-4.4 0-8 3.6-8 8V542.3c0 1.7 0.5 3.3 1.5 4.7 2.6 3.6 7.6 4.4 11.2 1.8L656.1 390c0.7-0.5 1.3-1.1 1.8-1.8 2.6-3.5 1.8-8.5-1.8-11.1z"  horiz-adv-x="1024" />

    
    <glyph glyph-name="stop-fill" unicode="&#59476;" d="M512 832C264.6 832 64 631.4 64 384s200.6-448 448-448 448 200.6 448 448S759.4 832 512 832z m234.8-736.5L223.5 618.8c16 19.7 34 37.7 53.7 53.7l523.3-523.3c-16-19.6-34-37.7-53.7-53.7z"  horiz-adv-x="1024" />

    
    <glyph glyph-name="warning-circle-fill" unicode="&#59477;" d="M512 832C264.6 832 64 631.4 64 384s200.6-448 448-448 448 200.6 448 448S759.4 832 512 832z m-32-232c0 4.4 3.6 8 8 8h48c4.4 0 8-3.6 8-8v-272c0-4.4-3.6-8-8-8h-48c-4.4 0-8 3.6-8 8V600z m32-440c-26.5 0-48 21.5-48 48s21.5 48 48 48 48-21.5 48-48-21.5-48-48-48z"  horiz-adv-x="1024" />

    
    <glyph glyph-name="time-circle-fill" unicode="&#59478;" d="M512 832C264.6 832 64 631.4 64 384s200.6-448 448-448 448 200.6 448 448S759.4 832 512 832z m176.5-585.7l-28.6-39c-2.6-3.6-7.6-4.3-11.2-1.7L483.3 326.2c-2.1 1.5-3.3 3.9-3.3 6.5V608c0 4.4 3.6 8 8 8h48.1c4.4 0 8-3.6 8-8v-247.5l142.6-103.1c3.6-2.5 4.4-7.5 1.8-11.1z"  horiz-adv-x="1024" />

    
    </font>
</defs>
</svg>
